<?xml version="1.0" encoding="utf-8"?><svg version="1.1" id="asLayer_1" xmlns="http://www.w3.org/2000/svg" xmlns:xlink="http://www.w3.org/1999/xlink" x="0" y="0" viewBox="-104.2 -104.2 1250.4 397.4" xml:space="preserve" width="120" height="38.14"><style>.asst0{fill:none;stroke:#02dc1f;stroke-width:2.2003;stroke-miterlimit:10}</style><image width="4158" height="653" xlink:href="62C89A57CD0AB872.png" transform="matrix(.24 0 0 .24 22.04 16.12)" overflow="visible"/><image width="4158" height="653" xlink:href="62C89A57CD0AB876.png" transform="matrix(.24 0 0 .24 22.04 16.12)" overflow="visible"/><image width="4158" height="653" xlink:href="62C89A57CD0AB871.png" transform="matrix(.24 0 0 .24 22.04 16.12)" overflow="visible"/><path class="asst0" d="M59.4 135.6V67.9l14.5-14.5h43.5l14.5 14.5v67.6h-24.2v-29H83.5v29H59.4zm48.3-53.2v-4.8H83.5v4.8h24.2zM146.9 135.6V53.4h58l14.5 14.5v53.2l-14.5 14.5h-58zm48.3-24.2V77.6H171v33.8h24.2zM234.4 135.6V67.9l14.5-14.5h43.5l14.5 14.5v67.6h-24.2v-29h-24.2v29h-24.1zm48.3-53.2v-4.8h-24.2v4.8h24.2zM321.9 135.6V67.9l14.5-14.5h24.2l4.8 4.8 2.4 2.4 7.3-7.3h24.2l14.5 14.5v67.6h-24.1v-58H380v58h-24.2v-58H346v58h-24.1zM472.7 135.6V53.4h58l14.5 14.5v19.3l-4.8 4.8-2.4 2.4 7.3 7.3v33.8H521v-29h-24.2v29h-24.1zM521 82.4v-4.8h-24.2v4.8H521zM560.2 135.6V53.4h72.5v24.2h-48.3v4.8h29v24.2h-29v4.8h48.3v24.1h-72.5zM671.8 135.6v-58h-24.1V53.4h72.5v24.2H696v58h-24.2zM759.3 135.6v-58h-24.1V53.4h72.5v24.2h-24.2v58h-24.2zM822.7 135.6V53.4h72.5v24.2h-48.3v4.8h29v24.2h-29v4.8h48.3v24.1h-72.5zM910.2 135.6V53.4h58l14.5 14.5v19.3l-4.8 4.8-2.4 2.4 7.3 7.3v33.8h-24.2v-29h-24.2v29h-24.2zm48.3-53.2v-4.8h-24.2v4.8h24.2z"/></svg>