<?xml version="1.0" encoding="utf-8"?><svg version="1.1" id="ayicons" xmlns="http://www.w3.org/2000/svg" x="0" y="0" viewBox="-10 -10 106.8 101.9" xml:space="preserve" width="106.8" height="101.9"><style>.ayst0{fill:#fff}.ayst1{fill:#eb6895}</style><path class="ayst0" d="M13 17l56 7 3 40-53 9z"/><path class="ayst1" d="M73.8 19.6L6 9.4l7.1 70.9 66.5-12.4-5.8-48.3zm-49.3 9.8h.2c.1 0 .3-.1.4-.1h35c.2 0 .3 0 .4.1h.2l.4.1-18.6 15.9-.1-.1L24 29.5l.5-.1zm-2.5 27v-.2c0-.1-.1-.3-.1-.4V32.4c0-.3.1-.6.2-.9l.1-.3.3.2L35 42.2 22.1 56.8l-.1-.4zm38.9 2.3c-.3.1-.6.2-.9.2H25c-.3 0-.6-.1-.9-.2l-.3-.1.2-.3 12.8-14.6 4.9 4.2c.4.4 1.2.4 1.6 0l4.9-4.2.1.2 12.9 14.7-.3.1zm2.3-2.9c0 .2 0 .3-.1.4v.2l-.1.4-12.9-14.6 12.8-10.9.1.3c.1.3.2.6.2.9v23.3z"/></svg>