<?xml version="1.0" encoding="utf-8"?><svg version="1.1" id="azicons" xmlns="http://www.w3.org/2000/svg" x="0" y="0" viewBox="-10 -10 106.8 101.9" xml:space="preserve" width="106.8" height="101.9"><style>.azst0{fill:#fff}.azst1{fill-rule:evenodd;clip-rule:evenodd;fill:#646462}</style><path class="azst0" d="M21 25l46-10 6 59-53-10z"/><path class="azst1" d="M71.9 9.4l-54.5 8-2.7 52.3L79 80.4l-7.1-71zM50.5 59.2c-.9.2-1.2-.4-1.2-.9v-4.9c0-1.7-.6-2.7-1.2-3.3 4-.4 8.1-1.9 8.1-8.8 0-1.9-.7-3.5-1.8-4.8.2-.5.8-2.3-.2-4.7 0 0-1.5-.5-4.9 1.8-1.4-.4-2.9-.6-4.5-.6-1.5 0-3 .2-4.5.6-3.4-2.3-4.9-1.8-4.9-1.8-1 2.5-.4 4.3-.2 4.7-1.1 1.2-1.8 2.8-1.8 4.8 0 6.8 4.2 8.3 8.1 8.8-.5.4-1 1.2-1.1 2.4-1 .5-3.6 1.2-5.2-1.5 0 0-.9-1.7-2.7-1.8 0 0-1.7 0-.1 1.1 0 0 1.2.5 2 2.6 0 0 1 3.5 6 2.4v3c0 .5-.3 1-1.2.9-7.1-2.4-12.2-9-12.2-16.9 0-9.8 8-17.8 17.8-17.8s17.8 8 17.8 17.8c0 7.9-5.1 14.6-12.1 16.9z"/></svg>