<?xml version="1.0" encoding="utf-8"?><svg id="bkgitlab-logo" data-name="logo art" xmlns="http://www.w3.org/2000/svg" viewBox="-126.6 -126.6 1519.2 812.2" width="120" height="64.15"><defs><style>.bkcls-1{fill:#8c929d}.bkcls-2{fill:#fc6d26}.bkcls-3{fill:#e24329}.bkcls-4{fill:#fca326}</style></defs><path id="bkpath14" class="bkcls-1" d="M839.7 198.19h-21.8l.1 162.5h88.3v-20.1h-66.5l-.1-142.4z"/><g id="bkg24"><path id="bkpath26" class="bkcls-1" d="M990.33 332.18a37.2 37.2 0 01-27 11.4c-16.6 0-23.3-8.2-23.3-18.9 0-16.1 11.2-23.8 35-23.8a104.65 104.65 0 0115.4 1.2v30.1zm-22.6-98.5a72.19 72.19 0 00-46.4 16.7l7.7 13.4c8.9-5.2 19.8-10.4 35.5-10.4 17.9 0 25.8 9.2 25.8 24.6v7.9a99.42 99.42 0 00-15.1-1.2c-38.2 0-57.6 13.4-57.6 41.4 0 25.1 15.4 37.7 38.7 37.7 15.7 0 30.8-7.2 36-18.9l4 15.9h15.4v-83.2c-.1-26.3-11.5-43.9-44-43.9z"/></g><g id="bkg28"><path id="bkpath30" class="bkcls-1" d="M1082.07 344.32c-8.2 0-15.4-1-20.8-3.5v-75.1c7.4-6.2 16.6-10.7 28.3-10.7 21.1 0 29.2 14.9 29.2 39 0 34.2-13.1 50.3-36.7 50.3m9.2-110.6a39.93 39.93 0 00-30 13.3V226l-.1-27.8h-21.3l.1 158.5c10.7 4.5 25.3 6.9 41.2 6.9 40.7 0 60.3-26 60.3-70.9-.1-35.5-18.2-59-50.2-59"/></g><g id="bkg32"><path id="bkpath34" class="bkcls-1" d="M602.34 215.82c19.3 0 31.8 6.4 39.9 12.9l9.4-16.3c-12.7-11.2-29.9-17.2-48.3-17.2-46.4 0-78.9 28.3-78.9 85.4 0 59.8 35.1 83.1 75.2 83.1a127.79 127.79 0 0048.4-9.4l-.5-63.9v-20.1H588v20.1h38l.5 48.5c-5 2.5-13.6 4.5-25.3 4.5-32.2 0-53.8-20.3-53.8-63-.1-43.5 22.2-64.6 54.9-64.6"/></g><g id="bkg36"><path id="bkpath38" class="bkcls-1" d="M755.87 198.17h-21.3l.1 27.3v94.3c0 26.3 11.4 43.9 43.9 43.9a70.14 70.14 0 0013.1-1.2v-19.1a62.36 62.36 0 01-9.9.7c-17.9 0-25.8-9.2-25.8-24.6v-65h35.7v-17.8H756l-.1-38.5z"/></g><path id="bkpath40" class="bkcls-1" d="M680.4 360.69h21.3v-124h-21.3v124z"/><path id="bkpath42" class="bkcls-1" d="M680.4 219.59h21.3v-21.3h-21.3v21.3z"/><g id="bkg44"><path id="bkpath46" class="bkcls-2" d="M461 301.81l-18.91-58.12-37.42-115.28a6.47 6.47 0 00-12.27 0L355 243.62H230.66l-37.42-115.21a6.47 6.47 0 00-12.27 0l-37.35 115.21-18.92 58.19a12.89 12.89 0 004.66 14.39L292.82 435l163.46-118.8a12.9 12.9 0 004.72-14.39"/></g><g id="bkg48"><path id="bkpath50" class="bkcls-3" d="M292.86 434.89L355 243.61H230.7l62.16 191.28z"/></g><g id="bkg56"><path id="bkpath58" class="bkcls-2" d="M292.82 434.9l-62.16-191.29h-87L292.82 434.9z"/></g><g id="bkg64"><path id="bkpath66" class="bkcls-4" d="M143.59 243.68l-18.92 58.12a12.89 12.89 0 004.66 14.39L292.79 435l-149.2-191.32z"/></g><g id="bkg72"><path id="bkpath74" class="bkcls-3" d="M143.61 243.68h87.11l-37.49-115.21a6.47 6.47 0 00-12.27 0l-37.35 115.21z"/></g><g id="bkg76"><path id="bkpath78" class="bkcls-2" d="M292.86 434.9L355 243.61h87.1L292.86 434.9z"/></g><g id="bkg80"><path id="bkpath82" class="bkcls-4" d="M442.07 243.68L461 301.8a12.89 12.89 0 01-4.66 14.39l-163.47 118.7 149.2-191.21z"/></g><g id="bkg84"><path id="bkpath86" class="bkcls-3" d="M442.12 243.68H355l37.42-115.21a6.47 6.47 0 0112.27 0l37.42 115.21z"/></g></svg>