<?xml version="1.0" encoding="utf-8"?><svg version="1.1" id="bllibraries-logo" xmlns="http://www.w3.org/2000/svg" x="0" y="0" viewBox="-11.6 -11.6 139.2 45.2" xml:space="preserve" width="120" height="38.97"><style>.blst0{fill:#fff}</style><path class="blst0" d="M2.8 5.2c0-.5 0-.8-.1-1 0-.2-.1-.3-.3-.3s-.5-.1-1-.1-.8 0-1 .1l-.3.3c0 .2-.1.5-.1 1v7L2.8 10V5.2zM.1 14v1.5c0 .5 0 .8.1 1 0 .2.1.3.3.3s.5.1 1 .1.8 0 1-.1c.2 0 .3-.1.3-.3 0-.2.1-.5.1-1V11.9L.1 14zM4.6 10.4v4.9c0 .5 0 .8.1 1 0 .2.1.3.3.3.2 0 .5.1 1 .1s.8 0 1-.1c.2 0 .3-.1.3-.3 0-.2.1-.5.1-1V8.2l-2.8 2.2zM7.3 5.3v-.1c0-.5 0-.8-.1-1 0-.1-.1-.2-.2-.3-.2 0-.5-.1-1-.1s-.8 0-1 .1-.3.2-.4.3c0 .2-.1.5-.1 1v3.5l2.8-2.2V5.3zM11.9 10.4v4.9c0 .5 0 .8-.1 1 0 .2-.1.3-.3.3s-.5.1-1 .1-.8 0-1-.1c-.2 0-.3-.1-.3-.3 0-.2-.1-.5-.1-1V8.2l2.8 2.2zM9.1 5.3v-.1c0-.5 0-.8.1-1 0-.2.1-.3.3-.3s.5-.1 1-.1.8 0 1 .1c.2 0 .3.1.3.3 0 .2.1.5.1 1v3.5L9.1 6.5V5.3z"/><g><path class="blst0" d="M27.2 14.5V17h-8.9V4.3h2.6v10.2h6.3zM28.7 5.2c0-.8.7-1.5 1.5-1.5s1.5.7 1.5 1.5-.7 1.5-1.5 1.5-1.5-.6-1.5-1.5zM31.5 17H29V7.9h2.5V17zM43.5 12.4c0 2.8-2 4.8-4.3 4.8-1.2 0-2.2-.5-2.9-1.4l-.1 1.2H34V3.4h2.5v5.3c.6-.7 1.5-1.1 2.6-1.1 2.5 0 4.4 2 4.4 4.8zm-2.5 0c0-1.5-1-2.5-2.4-2.5s-2.4 1-2.4 2.5 1 2.5 2.4 2.5 2.4-1 2.4-2.5zM51.4 7.8l-.6 2.4c-.4-.2-.8-.2-1.1-.2-1.1 0-2.1.7-2.1 2v5H45V7.9h2.3l.1 1.3c.6-1 1.6-1.6 2.8-1.6.4 0 .8.1 1.2.2zM60.6 11.5V17h-2.2l-.1-1.2c-.7 1-1.9 1.4-3.1 1.4-1.6 0-3.2-1-3.2-2.9 0-2.1 1.9-2.9 3.7-2.9.7 0 1.6.1 2.4.3v-.2c0-1.2-.7-1.8-2-1.8-.9 0-1.8.3-2.6.9l-.9-1.8c1-.7 2.4-1.3 4.1-1.3 2.6.1 3.9 1.4 3.9 4zm-2.5 1.9c-.7-.2-1.4-.3-2-.3-.9 0-1.6.3-1.6 1.1 0 .7.5 1 1.3 1 1.2 0 2.3-.7 2.3-1.8zM69.1 7.8l-.6 2.4c-.4-.2-.8-.2-1.1-.2-1.1 0-2.1.7-2.1 2v5h-2.5V7.9H65l.1 1.3c.6-.9 1.6-1.5 2.8-1.5.4-.1.9 0 1.2.1zM70.5 5.2c0-.8.7-1.5 1.5-1.5s1.5.7 1.5 1.5-.6 1.5-1.5 1.5-1.5-.6-1.5-1.5zM73.3 17h-2.5V7.9h2.5V17zM79.9 15.1c.9 0 1.6-.3 2.2-.9l1.6 1.6c-.9.9-2.3 1.4-3.7 1.4-2.8 0-5-1.9-5-4.8 0-2.8 1.9-4.8 4.8-4.8 3 0 4.5 2.1 4.5 4.3 0 .3-.1 1-.1 1.4h-6.6c.3 1.1 1.1 1.8 2.3 1.8zm-2.3-3.5h4.3c-.1-1.1-.8-1.8-2.1-1.8-1.2 0-1.9.7-2.2 1.8zM85.6 16l.8-1.8c.8.7 2.3 1 3.5 1 .7 0 1.6-.1 1.6-.9 0-.5-.7-.7-1.8-.9-2.2-.4-3.7-.8-3.7-2.7 0-2.4 2.2-3 4.1-3 1.4 0 2.7.4 3.6 1.1l-.8 1.8c-.7-.5-1.8-.8-2.9-.8-1 0-1.5.3-1.5.9 0 .4.3.5 1.4.7 2.2.4 4 .8 4 2.8s-1.7 3.1-4.2 3.1c-1.3-.1-3.1-.5-4.1-1.3zM95.7 15.7c0-.9.7-1.6 1.6-1.6s1.6.7 1.6 1.6-.7 1.6-1.6 1.6-1.6-.8-1.6-1.6zM100.7 5.2c0-.8.7-1.5 1.5-1.5s1.5.7 1.5 1.5-.7 1.5-1.5 1.5-1.5-.6-1.5-1.5zm2.7 11.8h-2.5V7.9h2.5V17zM105.2 12.4c0-2.8 2.1-4.8 4.9-4.8s4.9 2 4.9 4.8-2.1 4.8-4.9 4.8-4.9-1.9-4.9-4.8zm7.3 0c0-1.5-.9-2.5-2.4-2.5-1.4 0-2.4 1-2.4 2.5s.9 2.5 2.4 2.5c1.4 0 2.4-1 2.4-2.5z"/></g></svg>