<?xml version="1.0" encoding="UTF-8"?><!DOCTYPE svg PUBLIC "-//W3C//DTD SVG 1.1//EN" "http://www.w3.org/Graphics/SVG/1.1/DTD/svg11.dtd"><svg xmlns="http://www.w3.org/2000/svg" width="120" height="58.46" viewBox="-13 -13 156 76" shape-rendering="geometricPrecision" text-rendering="geometricPrecision" image-rendering="optimizeQuality" fill-rule="evenodd" clip-rule="evenodd"><defs><style>.ajstr0{stroke:#121613;stroke-width:.13}.ajfil2{fill:none}.ajfil0,.ajfil1,.ajfil3{fill:#1f1a17;fill-rule:nonzero}.ajfil0,.ajfil1{fill:#0078ab}.ajfil0{fill:#f54029}</style></defs><g id="ajLayer_x0020_1"><g id="aj_152392584"><path id="aj_152391984" class="ajfil0" d="M97.766 26.425l3.65-15.235h2.12l-3.688 15.235h-2.082zm6.703-1.918v-2.844l7.056-2.775-7.056-2.744V13.32l10.113 4.37v2.412l-10.113 4.405z"/><path id="aj_152389104" class="ajfil1" d="M49.901 13.223h3.005L55.46 20.8l2.494-7.578h2.923l-3.767 10.27-.676 1.86c-.247.62-.484 1.097-.707 1.427-.226.33-.483.593-.775.8a3.401 3.401 0 01-1.074.476 5.615 5.615 0 01-1.444.171 7.553 7.553 0 01-1.598-.171l-.25-2.213c.442.09.84.13 1.196.13.656 0 1.143-.192 1.458-.576.312-.384.556-.875.724-1.471l-4.061-10.703zm12.525 11.375l3.225.391c.055.377.178.635.37.775.268.203.693.302 1.266.302.738 0 1.29-.11 1.66-.332.247-.148.436-.385.563-.714.086-.233.13-.665.13-1.297v-1.557c-.844 1.153-1.91 1.729-3.197 1.729-1.434 0-2.57-.607-3.406-1.818-.656-.96-.985-2.151-.985-3.578 0-1.791.432-3.156 1.293-4.103.861-.944 1.932-1.417 3.211-1.417 1.318 0 2.409.58 3.266 1.74v-1.496h2.642V22.8c0 1.26-.103 2.2-.313 2.824-.205.624-.497 1.111-.87 1.468-.378.353-.88.631-1.504.834-.627.199-1.42.302-2.377.302-1.811 0-3.094-.313-3.849-.93-.758-.621-1.135-1.407-1.135-2.357 0-.096.003-.21.01-.343zm2.522-6.26c0 1.132.219 1.962.658 2.487.44.524.978.789 1.623.789.69 0 1.272-.271 1.75-.81.473-.539.713-1.338.713-2.398 0-1.104-.23-1.924-.686-2.46a2.157 2.157 0 00-1.726-.806c-.68 0-1.235.264-1.674.79-.439.528-.658 1.327-.658 2.408zm16.49 2.16l2.816.47c-.364 1.033-.933 1.819-1.715 2.357-.779.542-1.757.81-2.93.81-1.856 0-3.228-.604-4.12-1.818-.703-.971-1.056-2.2-1.056-3.678 0-1.77.463-3.156 1.389-4.157.923-1.002 2.093-1.503 3.506-1.503 1.588 0 2.84.525 3.76 1.575.916 1.05 1.355 2.655 1.317 4.82h-7.077c.02.837.247 1.488.683 1.951.435.467.98.7 1.63.7.442 0 .812-.12 1.114-.36.302-.244.532-.631.683-1.166zm.16-2.853c-.02-.82-.229-1.441-.63-1.867a1.944 1.944 0 00-1.469-.638c-.617 0-1.125.227-1.526.676-.402.446-.6 1.057-.594 1.829h4.22zm14.817 6.25h-2.823v-5.448c0-1.152-.062-1.897-.182-2.236-.12-.337-.32-.6-.59-.79a1.692 1.692 0 00-.978-.28c-.49 0-.93.133-1.317.4a2.045 2.045 0 00-.8 1.068c-.143.442-.215 1.259-.215 2.452v4.834h-2.824V13.223h2.621v1.567c.933-1.207 2.106-1.81 3.52-1.81.62 0 1.194.112 1.708.335.515.227.906.512 1.17.861.264.35.45.745.552 1.187.106.443.158 1.074.158 1.897v6.635z"/><path id="aj_152390160" class="ajfil2 ajstr0" d="M113.287 10.52a1.294 1.294 0 110 2.589 1.294 1.294 0 010-2.589z"/><path id="aj_152389536" class="ajfil3" d="M114.008 12.62h-.232l-.152-.43a.4.4 0 00-.135-.188.35.35 0 00-.219-.073h-.396v.692h-.214v-1.617h.716c.125 0 .227.012.306.036.08.025.145.076.195.154.05.078.075.165.075.263a.413.413 0 01-.098.28.458.458 0 01-.265.147v.005c.112.035.198.133.257.292l.162.44zm-1.134-.883h.478c.133 0 .23-.02.289-.063.06-.041.09-.114.09-.217 0-.184-.115-.275-.346-.275h-.51v.555z"/><path id="aj_152391096" class="ajfil1" d="M23.2 18.74c0-.937.234-1.846.694-2.724a4.761 4.761 0 011.966-2.007c.847-.463 1.794-.696 2.84-.696 1.612 0 2.936.525 3.969 1.574 1.033 1.05 1.547 2.374 1.547 3.976 0 1.612-.521 2.95-1.56 4.014-1.044 1.063-2.354 1.592-3.936 1.592-.98 0-1.91-.22-2.799-.663a4.558 4.558 0 01-2.027-1.945c-.46-.854-.693-1.893-.693-3.121zm2.896.15c0 1.06.25 1.87.755 2.433.5.562 1.122.844 1.86.844.737 0 1.354-.282 1.852-.844.5-.563.75-1.38.75-2.453 0-1.043-.25-1.849-.75-2.412-.498-.562-1.115-.844-1.853-.844-.737 0-1.358.282-1.86.844-.503.563-.754 1.376-.754 2.432z"/><path id="aj_152388912" class="ajfil0" d="M21.898 24.504l-10.103-4.395v-2.432l10.103-4.37v2.864l-7.046 2.693 7.046 2.796z"/><path id="aj_152392368" class="ajfil0" d="M49.544 26.045l-3.626 2.445c-1.177-1.77-2.217-3.326-3.12-4.668l-1.884-2.792c-2.115 3.25-3.763 5.677-4.949 7.286-1.182 1.614-2.205 2.832-3.065 3.668 0-.147.582-1.592 1.75-4.339a566.327 566.327 0 014.307-9.82l-5.83-9.14 3.06-.68c.617 1.2 1.246 2.445 1.88 3.743a357.628 357.628 0 012.235 4.685c.458-.729 1.254-2.053 2.388-3.965 1.13-1.916 2.013-3.267 2.642-4.059-.83 2.859-1.456 4.997-1.88 6.42-.42 1.427-.822 2.742-1.207 3.96l7.3 7.256z"/><path id="aj_152389896" class="ajfil3" d="M73.868 34.71l1.899-2.9-1.72-2.656h1.31l1.115 1.785 1.09-1.785h1.3l-1.728 2.698 1.899 2.857H77.68l-1.231-1.92-1.236 1.92z"/><path id="aj_1523898961" class="ajfil3" d="M79.594 34.71v-5.556h1.68l1.007 3.79.996-3.79h1.683v5.555h-1.041v-4.373l-1.104 4.373h-1.08l-1.1-4.373v4.373z"/><path id="aj_15238989612" class="ajfil3" d="M86.105 34.71V29.2h1.121v4.573h2.789v.936z"/><path id="aj_152389896123" class="ajfil3" d="M92.832 34.71v-5.556h4.119v.94h-2.997v1.232h2.789v.935h-2.79v1.512h3.104v.936z"/><path id="aj_1523898961234" class="ajfil3" d="M101.692 34.71h-.988v-.592c-.165.23-.359.401-.582.514a1.49 1.49 0 01-.677.168c-.463 0-.859-.186-1.189-.559-.328-.372-.494-.892-.494-1.558 0-.683.16-1.202.481-1.556.321-.355.727-.533 1.218-.533.448 0 .838.187 1.166.56v-2h1.065v5.556zm-2.842-2.1c0 .43.06.74.179.933.17.277.411.416.719.416.246 0 .454-.105.626-.313.17-.208.257-.52.257-.934 0-.462-.084-.795-.25-.998a.793.793 0 00-.64-.306.8.8 0 00-.635.302c-.17.2-.256.5-.256.9z"/><path id="aj_15238989612345" class="ajfil3" d="M102.742 30.14v-.986h1.065v.986h-1.065zm0 4.57v-4.025h1.065v4.025h-1.065z"/><path id="aj_152389896123456" class="ajfil3" d="M106.743 30.685v.849h-.727v1.622c0 .329.006.52.02.574a.238.238 0 00.095.135c.05.035.11.053.18.053.1 0 .242-.035.43-.102l.09.825a2.12 2.12 0 01-.842.159c-.192 0-.365-.032-.519-.096a.764.764 0 01-.339-.25.99.99 0 01-.15-.416c-.022-.123-.033-.374-.033-.75v-1.754h-.49v-.849h.49v-.8l1.068-.621v1.421h.727z"/><path id="aj_1523898961234567" class="ajfil3" d="M107.236 32.64c0-.353.088-.696.261-1.027.175-.33.422-.584.742-.757.319-.175.676-.263 1.07-.263.609 0 1.108.198 1.497.594.39.396.584.895.584 1.5 0 .607-.197 1.112-.589 1.513-.393.4-.887.6-1.484.6-.37 0-.72-.083-1.055-.25a1.72 1.72 0 01-.765-.733c-.173-.322-.261-.714-.261-1.177zm1.092.057c0 .4.094.705.284.917a.902.902 0 00.701.318.895.895 0 00.699-.318c.189-.212.283-.52.283-.925 0-.393-.094-.697-.283-.91a.895.895 0 00-.699-.318.902.902 0 00-.7.319c-.19.212-.285.518-.285.917z"/><path id="aj_15238989612345678" class="ajfil3" d="M113.243 34.71h-1.065v-4.025h.989v.572c.17-.27.322-.449.456-.534a.846.846 0 01.46-.13c.244 0 .477.068.702.202l-.33.928c-.179-.115-.345-.174-.5-.174-.15 0-.275.04-.378.123-.105.082-.185.23-.245.445s-.089.665-.089 1.35v1.242z"/></g></g></svg>