<?xml version="1.0" encoding="utf-8"?><svg version="1.1" id="ahappel" xmlns="http://www.w3.org/2000/svg" x="0" y="0" viewBox="-120 -120 1440 1440" xml:space="preserve" width="120" height="120"><style>.ahst0{fill:#f54029}</style><g id="ahLayer_x0020_1"><g id="ah_152392584"><path id="ah_152392368" class="ahst0" d="M1032.3 891.9L854 1012c-57.8-86.9-108.8-163.3-153.2-229.2-44.5-65.5-75.2-111.6-92.6-137.5-103.9 159.7-184.8 279-243.4 357.8-58.2 79.2-108.4 139.1-150.8 179.9 0-7.3 28.7-78.4 86.1-213.5C357.2 834.9 427.9 674 512 487.2L225.8 38.9 376.2 5.3c30.3 59 61.5 120.1 92.2 184s67.5 140.7 110 230.5c22.6-36 61.9-101.1 117.7-194.9 55.4-94.2 98.6-160.5 129.8-199.3C785.1 165.9 754.3 271 733.7 341c-20.6 69.9-40.4 134.6-59.4 194.5l358 356.4z"/></g></g></svg>