<?xml version="1.0" encoding="utf-8"?><svg version="1.1" id="bspdf-icon" xmlns="http://www.w3.org/2000/svg" x="0" y="0" viewBox="-12.8 -12.8 153.6 153.6" xml:space="preserve" width="120" height="120"><style>.bsst0{fill:#fd4233}.bsst1{fill:#ff402f}</style><g id="bsPdf"><path class="bsst0" d="M104 126H24c-5.5 0-10-4.5-10-10V12c0-5.5 4.5-10 10-10h40.7c2.7 0 5.2 1 7.1 2.9l39.3 39.3c1.9 1.9 2.9 4.4 2.9 7.1V116c0 5.5-4.5 10-10 10zM24 6c-3.3 0-6 2.7-6 6v104c0 3.3 2.7 6 6 6h80c3.3 0 6-2.7 6-6V51.3c0-1.6-.6-3.1-1.8-4.2L68.9 7.8C67.8 6.6 66.3 6 64.7 6H24z"/><path class="bsst1" d="M95.2 80.3c-.1-.5-.5-1.2-.9-1.6-1.3-1.2-4-1.9-8.2-1.9-2.9 0-6.3.2-9.9.7-1.6-.9-3.3-1.9-4.6-3.2-3.5-3.3-6.5-7.9-8.3-12.9.1-.5.2-.9.3-1.3 0 0 2-11.3 1.5-15.1-.1-.5-.1-.7-.3-1.1l-.2-.4C64 42.3 63 41 61.3 41h-1c-1.9 0-3.4 1-3.8 2.4-1.2 4.4 0 11.1 2.3 19.7l-.6 1.4c-1.6 3.9-3.6 7.9-5.4 11.4l-.2.4c-1.9 3.7-3.6 6.8-5.1 9.4l-1.6.8c-.1.1-2.8 1.5-3.5 1.9-5.4 3.2-9 6.9-9.6 9.8-.2.9 0 2.1.9 2.7l1.5.8c.7.3 1.4.5 2.1.5 3.9 0 8.4-4.8 14.5-15.6 7.1-2.3 15.3-4.3 22.4-5.3 5.4 3.1 12.1 5.2 16.3 5.2.8 0 1.4-.1 1.9-.2.8-.2 1.5-.7 1.9-1.3 1-1.2 1.1-2.9.9-4.7zm-58.7 19c.7-1.9 3.5-5.8 7.6-9.1.3-.2.9-.8 1.5-1.4-4.3 6.9-7.2 9.7-9.1 10.5zM61 43c1.2 0 2 3.1 2 6.1.1 2.9-.6 5-1.5 6.5-.7-2.3-1-5.8-1-8.2-.1.1-.1-4.4.5-4.4zm-7.3 40.1c.9-1.6 1.8-3.2 2.7-4.9 2.2-4.2 3.7-7.6 4.7-10.3 2.1 3.8 4.7 7.1 7.8 9.7.4.3.8.7 1.2 1-6.3 1.2-11.7 2.7-16.4 4.5zm39.4-.3c-.4.2-1.5.4-2.2.4-2.3 0-5.1-1-9-2.7 1.5-.1 2.9-.2 4.1-.2 2.3 0 2.9 0 5.2.6 2.2.5 2.3 1.7 1.9 1.9z"/></g></svg>