<?xml version="1.0" encoding="utf-8"?><svg height="59.06" width="120" xmlns="http://www.w3.org/2000/svg" viewBox="-51.2 -51.2 614.4 302.4"><g fill="#1f2938"><path d="M477 71.403v57.194h-65.364v-8.171h57.194v-8.17h-57.194V71.403h8.171v32.682h49.023V71.403zM191.034 71.403v57.193h8.17v-16.341h57.193V71.403zm57.193 32.682h-49.023V79.574h49.023zM329.932 71.403v8.171h-57.194v32.682h-8.17V71.403zM338.102 71.403v40.852h65.364v-8.17h-57.193v-8.17h57.193V71.403zm57.193 16.341h-49.023v-8.17h49.023zM97.968 40.693L78.083 52.174l13.255 7.652L97.951 56l6.645 3.824 13.252-7.654zM97.971 159.307l49.702-28.698-.001-30.61-13.26 7.653.005 15.304-36.452 21.046-36.455-21.05-.001-15.303-13.25-7.65v30.607z"/><path d="M154.298 65.558v.01l.009 15.296-46.399 26.79 13.245 7.653-23.186 13.391-23.195-13.391 13.254-7.653-46.399-26.79.009-15.287L35 61.746V42.618l56.331 32.518 6.636-3.822 6.618 3.822 56.34-32.528v19.128z"/></g></svg>