<?xml version="1.0" encoding="utf-8"?><svg version="1.1" id="buprey-logo" xmlns="http://www.w3.org/2000/svg" x="0" y="0" viewBox="-120 -120 1440 1440" xml:space="preserve" width="120" height="120"><style>.bust0{fill:#fff}</style><path class="bust0" d="M598.3 37.6L414.3 144 537 215l61.3-35.5 61.3 35.5 122.7-71-184-106.4zM598.3 1136.9l460.6-265.8V587.2l-122.7 71v141.9l-338 194.8-338-194.8V658.2l-122.7-71V871l460.8 265.9z"/><path class="bust0" d="M1120.3 267.9v141.9l-430 248.4 122.7 71L598.3 853 383.6 729.1l122.7-71-430-248.4V267.9L15 232.4V55.6l522 301.3 61.3-35.5 61.3 35.5 522-301.9v177.4l-61.3 35.5z"/></svg>