<?xml version="1.0" encoding="utf-8"?><svg version="1.1" id="aoskype-logo-2" xmlns="http://www.w3.org/2000/svg" x="0" y="0" viewBox="-120 -120 1440 1440" xml:space="preserve" width="120" height="120"><style>.aost0{fill:url(#aoSVGID_1_)}.aost1{fill:url(#aoSVGID_2_)}.aost2,.aost3{opacity:5.000000e-02;fill-rule:evenodd;clip-rule:evenodd;enable-background:new}.aost3{opacity:.1}.aost4{fill:url(#aoSVGID_3_)}.aost5{fill-rule:evenodd;clip-rule:evenodd;fill:#fff}</style><g transform="translate(-381.726 -337.143)"><linearGradient id="aoSVGID_1_" gradientUnits="userSpaceOnUse" x1="-58.222" y1="1375.529" x2="-54.995" y2="1355.155" gradientTransform="matrix(33.3333 0 0 -33.3333 2626.853 46202.902)"><stop offset=".012" stop-color="#00b7f0"/><stop offset=".339" stop-color="#009de5"/><stop offset=".755" stop-color="#0082d9"/><stop offset="1" stop-color="#0078d4"/></linearGradient><path class="aost0" d="M1084.8 691.5c0 189.8-154.4 343.7-344.9 343.7-190.5 0-344.9-153.9-344.9-343.7 0-189.8 154.4-343.7 344.9-343.7 190.5 0 344.9 153.9 344.9 343.7"/><linearGradient id="aoSVGID_2_" gradientUnits="userSpaceOnUse" x1="-51.151" y1="1345.362" x2="-33.236" y2="1355.704" gradientTransform="matrix(33.3333 0 0 -33.3333 2626.853 46202.902)"><stop offset="0" stop-color="#0078d4"/><stop offset=".37" stop-color="#007ad5"/><stop offset=".573" stop-color="#0082d9"/><stop offset=".735" stop-color="#0090df"/><stop offset=".875" stop-color="#00a3e7"/><stop offset="1" stop-color="#00bcf2"/></linearGradient><path class="aost1" d="M1565.4 1185.1c0 189.9-154.5 343.8-345 343.8s-345-153.9-345-343.8 154.5-343.8 345-343.8 345 153.9 345 343.8"/><path class="aost2" d="M396.3 720.9c15.7 189.8 182.2 331 372 315.3 189.8-15.7 331-182.2 315.3-372-13.4-162.6-138.9-293.5-300.8-313.8C605 409.9 463.2 545.8 396.3 720.9z"/><path class="aost2" d="M1564.5 1160.4c-13-190.1-177.7-333.6-367.7-320.6s-333.6 177.7-320.6 367.7c11.6 169 144.2 304.6 312.9 320 172.9-61.5 310.1-195.7 375.4-367.1z"/><path class="aost3" d="M412.4 799.5c59.2 181 253.8 279.7 434.8 220.5s279.7-253.8 220.5-434.8c-32.5-99.5-108.5-178.8-206.5-215.6-219.4 45.8-393.6 212.6-448.8 429.9z"/><path class="aost3" d="M1548.8 1079.7c-57.8-181.5-251.7-281.8-433.2-224-181.5 57.8-281.8 251.7-224 433.2 33.1 103.9 113.4 186.1 216.5 221.5 216.6-48.6 387.2-215.4 440.7-430.7z"/><path class="aost3" d="M425.1 832.1c77.2 174 280.8 252.4 454.8 175.2s252.4-280.8 175.2-454.8c-32.6-73.4-89.8-133.1-161.7-168.9-234.7 36.6-421.6 215.6-468.3 448.5z"/><path class="aost3" d="M1536.1 1046.4c-76.2-174.5-279.4-254.2-453.9-178.1s-254.2 279.4-178 453.9c33.7 77.1 94.4 139.3 170.8 174.8 232.5-39.5 416.2-219 461.1-450.6z"/><linearGradient id="aoSVGID_3_" gradientUnits="userSpaceOnUse" x1="-55.792" y1="1368.934" x2="-39.443" y2="1340.617" gradientTransform="matrix(33.3333 0 0 -33.3333 2626.853 46202.902)"><stop offset="0" stop-color="#00b7f0"/><stop offset="1" stop-color="#007cc1"/></linearGradient><path class="aost4" d="M1526.5 940.9c0 300.7-244.6 544.4-546.2 544.4-301.7 0-546.2-243.7-546.2-544.4s244.6-544.4 546.2-544.4 546.2 243.8 546.2 544.4"/><path class="aost5" d="M826.7 922c-22.1-14.5-40.5-34-53.8-56.8-12.9-24.1-19.2-51.2-18.4-78.5-1-34.7 10.9-68.5 33.2-95 23.3-26.6 53.1-46.6 86.6-57.9 36.4-12.9 74.8-19.3 113.4-19.1 25.3-.2 50.5 1.7 75.4 5.8 17.8 2.8 35.4 7.3 52.3 13.5 15.6 5.3 29.6 14.2 40.9 26.1 8.3 9.8 12.8 22.3 12.6 35.2.6 13.5-4.2 26.7-13.3 36.7-8.6 9.2-20.8 14.3-33.4 13.9-8.6-.1-17.1-2-24.8-5.6-19.2-8.6-39-15.8-59.2-21.7-18.6-4.9-37.8-7.3-57-7.1-25.1-.9-49.9 5.4-71.4 18.3a59.61 59.61 0 00-28.5 53.4c-.1 14 5.2 27.4 14.8 37.5 11.4 11.9 25 21.5 39.9 28.5 16.7 8.3 41.7 19.3 74.8 33 3.7 1.2 7.3 2.6 10.7 4.3 32.4 12.8 63.4 28.7 92.6 47.6 23.1 15.1 42.6 35 57 58.5 14.2 24.7 21.4 52.8 20.6 81.3 1.2 34.9-8.8 69.2-28.5 98-20.1 27.2-47.8 47.9-79.7 59.2-38.4 13.7-79 20.3-119.9 19.5-56.1 2-111.9-8.6-163.4-30.9-13.2-5.9-24.7-14.8-33.6-26.1-7.4-10.4-11.3-22.9-10.9-35.6-.7-13.6 4.5-26.8 14.4-36.2 10.2-8.9 23.5-13.6 37.1-13.1 15.1.2 30 4 43.3 11.1 16.6 8.3 29.7 14.5 39.3 18.7 10.9 4.6 22.3 8.2 33.9 10.7 14.3 3.1 28.9 4.6 43.5 4.5 25.9 1.8 51.6-5 73.1-19.5 16.3-12.8 25.5-32.7 24.6-53.4 0-14.5-5.5-28.4-15.4-39-13.1-13.6-28.5-24.7-45.4-33.1-20-10.6-48.2-23.4-84.5-38.6-32.6-12.8-63.7-28.9-92.9-48.1"/></g></svg>