<?xml version="1.0" encoding="utf-8"?><svg version="1.1" id="bzslides-logo" xmlns="http://www.w3.org/2000/svg" x="0" y="0" viewBox="-140 -140 1680 880" xml:space="preserve" width="120" height="62.86"><style>.bzst0{fill:#512833}.bzst1{fill:#934358}.bzst2{fill:#e5637c}.bzst3{fill:#fff}</style><g id="bzSymbol"><path class="bzst0" d="M493.8 502.9l-350-63.9 63.8-350 350.1 63.9z"/><path class="bzst1" d="M488.1 491.1L134 456.7l34.4-354.1 354.1 34.3z"/><path class="bzst2" d="M482.6 474.7H126.8V118.9h355.8z"/><path class="bzst3" d="M252.6 365.3c0-2.1 1.3-5.2 3.9-9.3 2.6-4.1 4.9-6.2 7-6.2.2 0 1.9 1 5 2.9 3.1 2 7.5 3.9 13.3 5.9 5.8 2 12.7 2.9 20.9 2.9s14.9-2.3 20.1-7c5.3-4.6 7.9-10.9 7.9-18.9 0-7.9-2.3-14.1-7-18.6-4.6-4.4-13.9-8.6-27.7-12.5-13.8-3.9-23.8-8.9-30-15-6.2-6.1-9.3-15.3-9.3-27.7 0-12.4 4.7-22.8 14.2-31.1 9.5-8.4 21.9-12.5 37.2-12.5 10.5 0 19.9 1.3 28.2 4s12.4 5.7 12.4 9c0 2.7-1.2 6.1-3.6 10.4-2.4 4.2-4.5 6.3-6.3 6.3-.2 0-1.5-.6-4-1.9-7-3.7-14.9-5.6-23.7-5.6-8.8 0-15.6 1.8-20.4 5.4-4.9 3.6-7.3 8.3-7.3 14.1 0 5.8 1.8 10.3 5.4 13.6 3.6 3.3 9.8 6.3 18.4 9 19.4 6 32.6 12.5 39.5 19.7 6.9 7.1 10.4 17.9 10.4 32.2 0 14.4-5.1 26.2-15.3 35.5-10.2 9.3-22.5 13.9-36.7 13.9-14.2 0-26.5-2.1-36.9-6.3-10.5-4.2-15.6-8.3-15.6-12.2z"/></g><g id="bzWord"><path class="bzst3" d="M611.9 355.2c0-1.8 1.1-4.5 3.3-8 2.2-3.6 4.2-5.3 6-5.3.2 0 1.6.8 4.3 2.5 2.7 1.7 6.5 3.4 11.5 5.1 5 1.7 11 2.5 18 2.5s12.8-2 17.4-6c4.5-4 6.8-9.4 6.8-16.3s-2-12.2-6-16c-4-3.8-12-7.4-23.9-10.8-11.9-3.4-20.6-7.7-25.9-13-5.3-5.3-8-13.2-8-23.9s4.1-19.6 12.3-26.9c8.2-7.2 18.9-10.8 32.1-10.8 9.1 0 17.2 1.2 24.3 3.5 7.1 2.3 10.7 4.9 10.7 7.8 0 2.3-1 5.3-3.1 9s-3.9 5.5-5.5 5.5c-.2 0-1.3-.5-3.5-1.6-6.1-3.2-12.9-4.8-20.4-4.8-7.6 0-13.5 1.6-17.6 4.7-4.2 3.1-6.3 7.2-6.3 12.2 0 5 1.6 8.9 4.7 11.8 3.1 2.9 8.4 5.4 15.9 7.7 16.7 5.2 28.1 10.8 34.1 17 6 6.1 9 15.4 9 27.8s-4.4 22.6-13.2 30.6c-8.8 8-19.4 12-31.7 12s-22.9-1.8-31.8-5.5c-9.1-3.9-13.5-7.4-13.5-10.8zM728.1 334.4V174.6c0-3.9 3.6-5.9 10.7-5.9h1.1c7.1 0 10.7 2 10.7 5.9v157.7c0 13.2 4.8 19.8 14.4 19.8 3 0 5.6-.2 7.7-.7 2.1-.4 3.4-.7 3.7-.7 1.6 0 2.9 1.6 4 4.9 1.1 3.3 1.6 5.8 1.6 7.6 0 5.3-6.5 8-19.5 8-8.9 0-16.9-2.7-23.9-8.1-6.9-5.4-10.5-15-10.5-28.7zM803.2 365.3v-132c0-3.9 3.6-5.9 10.7-5.9h1.1c7.1 0 10.7 2 10.7 5.9v132c0 3.9-3.6 5.9-10.7 5.9h-1.1c-7.1 0-10.7-2-10.7-5.9zM880.5 297.8c0 36 11.6 54 34.7 54 11.6 0 23-6.1 34.2-18.4v-73.2c-9.6-8-20.4-12-32.3-12h-1.6c-11.4.2-20.1 4.5-26.1 13.1-6 8.4-8.9 20.6-8.9 36.5zm70.8 53.4c-12.8 13.4-27.1 20-42.8 20-15.7 0-28.2-6.6-37.5-19.8-9.4-13.2-14-30.1-14-50.8v-2.4c0-21.9 5-39.1 15-51.4 10-12.4 22.4-18.6 37.4-18.6s28.3 4.5 40.1 13.6v-67.3c0-3.9 3.6-5.9 10.7-5.9h1.1c7.1 0 10.7 2 10.7 5.9V330c0 10.7.4 18.4 1.3 23.3 1.2 6.6 1.9 10.1 1.9 10.4 0 2.1-1.7 3.7-5.1 4.7-3.4 1-6 1.5-7.9 1.5-1.9 0-3.2-.2-3.9-.5-.7-.4-1.4-1-2-1.9-.6-.9-1.1-1.7-1.5-2.5-.4-.8-.7-1.9-1.1-3.3-.4-1.4-.7-2.5-.9-3.3-.3-.8-.5-2-.8-3.7-.3-1.8-.5-2.9-.7-3.5zM1092.2 289.8c0-28.1-10.7-42.2-32.1-42.2-23 0-35.5 14.1-37.4 42.2h69.5zm-77.5 64.1c-10.7-11.6-16-29.3-16-53 0-23.8 5.3-41.8 15.8-54.1 10.5-12.3 25.5-18.4 44.9-18.4 37.8 0 56.7 23.2 56.7 69.8 0 1.6-1.1 3.8-3.2 6.7-2.1 2.9-4 4.3-5.6 4.3h-84.4c1.1 14.8 4.9 25.7 11.5 32.6 6.6 7 16.5 10.4 29.7 10.4 12.1 0 23.2-2.9 33.4-8.6 3.4-1.8 5.3-2.7 5.6-2.7 1.8 0 3.8 1.8 6 5.3 2.2 3.6 3.3 6.2 3.3 8 0 3.6-4.9 7.3-14.6 11.2-9.7 3.9-20.9 5.9-33.5 5.9-22.4 0-38.9-5.8-49.6-17.4zM1130.7 355.2c0-1.8 1.1-4.5 3.3-8 2.2-3.6 4.2-5.3 6-5.3.2 0 1.6.8 4.3 2.5 2.7 1.7 6.5 3.4 11.5 5.1 5 1.7 11 2.5 18 2.5s12.8-2 17.4-6c4.5-4 6.8-9.4 6.8-16.3s-2-12.2-6-16c-4-3.8-12-7.4-23.9-10.8-11.9-3.4-20.6-7.7-25.9-13-5.3-5.3-8-13.2-8-23.9s4.1-19.6 12.3-26.9c8.2-7.2 18.9-10.8 32.1-10.8 9.1 0 17.2 1.2 24.3 3.5 7.1 2.3 10.7 4.9 10.7 7.8 0 2.3-1 5.3-3.1 9s-3.9 5.5-5.5 5.5c-.2 0-1.3-.5-3.5-1.6-6.1-3.2-12.9-4.8-20.4-4.8-7.6 0-13.5 1.6-17.6 4.7-4.2 3.1-6.3 7.2-6.3 12.2 0 5 1.6 8.9 4.7 11.8 3.1 2.9 8.4 5.4 15.9 7.7 16.7 5.2 28.1 10.8 34.1 17 6 6.1 8.9 15.4 8.9 27.8s-4.4 22.6-13.2 30.6c-8.8 8-19.4 12-31.7 12s-22.9-1.8-31.8-5.5c-8.9-3.9-13.4-7.4-13.4-10.8zM829.6 181.3c0 8.4-6.8 15.2-15.2 15.2s-15.2-6.8-15.2-15.2c0-8.4 6.8-15.2 15.2-15.2s15.2 6.8 15.2 15.2z"/></g></svg>