<?xml version="1.0" encoding="utf-8"?><svg version="1.1" id="caslides-logo" xmlns="http://www.w3.org/2000/svg" x="0" y="0" viewBox="-120 -120 1440 1440" xml:space="preserve" width="120" height="120"><style>.cast0{fill:#512833}.cast1{fill:#934358}.cast2{fill:#e5637c}.cast3{fill:#fff}</style><g id="caSymbol"><path class="cast0" d="M1009.6 1157.6L65.7 985.3 237.8 41.4l944.3 172.3z"/><path class="cast1" d="M994.2 1125.8L39.3 1033l92.9-955 954.9 92.5z"/><path class="cast2" d="M979.5 1081.5H20V122h959.5z"/><path class="cast3" d="M359.3 786.5c0-5.7 3.5-14 10.4-25 7.1-11 13.2-16.8 18.9-16.8.6 0 5.1 2.8 13.4 7.9 8.3 5.3 20.3 10.4 35.9 16 15.6 5.5 34.3 7.9 56.4 7.9s40.2-6.1 54.2-18.9c14.4-12.4 21.3-29.4 21.3-51.1 0-21.3-6.1-38-18.9-50.1-12.4-11.8-37.5-23.3-74.7-33.7-37.3-10.4-64.3-24.1-80.8-40.4-16.8-16.4-25-41.2-25-74.7s12.6-61.5 38.2-83.8c25.6-22.7 59.1-33.7 100.3-33.7 28.4 0 53.6 3.5 76.1 10.8s33.5 15.4 33.5 24.2c0 7.3-3.2 16.4-9.7 28-6.5 11.2-12.2 17-17 17-.6 0-4.1-1.6-10.8-5.1-18.9-10.1-40.2-15.2-63.9-15.2-23.7 0-42 4.9-55 14.6-13.2 9.7-19.7 22.5-19.7 38 0 15.6 4.9 27.8 14.6 36.7s26.4 17 49.7 24.2c52.2 16.2 87.9 33.7 106.5 53.2 18.5 19.1 28 48.3 28 86.9 0 38.8-13.8 70.6-41.2 95.8-27.6 25-60.7 37.5-99 37.5-38.2 0-71.6-5.7-99.6-17-28.5-11.7-42.1-22.7-42.1-33.2z"/></g></svg>