<?xml version="1.0" encoding="utf-8"?><svg version="1.1" id="ccsw-rdf-logo" xmlns="http://www.w3.org/2000/svg" x="0" y="0" viewBox="-10 -10 100.5 35.5" xml:space="preserve" width="100.5" height="35.5"><style>.ccst0{fill:#fff}.ccst1{fill:#005b9d}.ccst2{fill:none;stroke:#005b9d;stroke-width:.5}.ccst3{fill:#241e12}.ccst4{fill:#87bb40}.ccst5{fill:#ed7d22}.ccst6{fill:#bd1b89}</style><g shape-rendering="geometricPrecision" image-rendering="optimizeQuality" text-rendering="geometricPrecision"><path class="ccst0" d="M.2.2h41.5v15.1H.2z"/><path class="ccst1" d="M39 .2h41.2v15.1H39z"/><path class="ccst0" d="M46.6 4h4.9c2.3 0 3.3 1.1 3.3 2.3 0 .9-.5 1.5-1.4 1.9.6.3.9.8 1.4 1.8l1 2.2h-3l-.5-1.2c-.6-1.4-1.1-2.2-1.9-2.2h-.8v3.4h-3V4zm3.8 3.5c1 0 1.5-.4 1.5-1.1s-.5-1.1-1.5-1.1h-.9v2.2h.9zM56.9 4h4.3c3.3 0 4.7 2.3 4.7 4.2 0 1.9-1.2 4-4.1 4h-4.9V4zm3.8 6.2c1.5 0 2.2-.7 2.2-2.1 0-1.1-.5-2.1-2.1-2.1H60v4.3l.7-.1zM67.4 4h6.3v1.7h-3.3v1.5h3.1v1.7h-3.1v3.2h-3V4z"/><path class="ccst2" d="M.2.2h80v15H.2z"/><g><path class="ccst3" d="M23.9 1.6c.4 0 .7.3.7.7 0 .4-.3.7-.7.7-.4 0-.7-.3-.7-.7 0-.3.3-.7.7-.7zm0 .2c-.3 0-.6.3-.6.6s.2.6.6.6c.3 0 .6-.3.6-.6 0-.4-.3-.6-.6-.6zm-.1 1h-.2V2h.5s.1.1.1.2-.1.2-.2.2c.1 0 .1.1.1.2v.2h-.2v-.2c0-.1-.1-.1-.2-.1h-.1v.3zm0-.5c.2 0 .3 0 .3-.1s0-.1-.2-.1h-.1v.2zM22.7 2.5l.2 1.4-.8 1.6s-.3-.7-.8-1c-.4-.3-.7-.4-1.2-.3-.6.1-1.2.8-1.5 1.6-.3 1-.3 1.5-.4 1.9 0 .7.1 1.1.1 1.1s-.4-.8-.4-2.2c0-1 .2-1.8.6-2.7.4-.8 1-1.2 1.5-1.3.5-.1 1 .2 1.3.5.3.3.7.9.7.9l.7-1.5zM22.8 10.4l-.6.9c-.2.2-.6.7-1.1.9-.5.2-.8.3-1.2.2-.5 0-.9-.3-1.1-.4-.2-.1-.6-.5-.8-.8-.2-.3-.6-1-.6-1l.3.9c.1.2.3.6.6 1.1.3.4.9 1.1 1.7 1.2s1.5-.2 1.6-.3c.1-.1.5-.4.7-.6.2-.2.4-.5.5-.7.1-.1.2-.4.2-.4l-.2-1z"/><g><path class="ccst1" d="M7.8 2.5l2 6.7 2-6.7h1.4l-3.2 11h-.2l-2-6.8-2 6.8h-.2l-3.2-11h1.4l2 6.7 1.3-4.5-.7-2.2h1.4z"/><path class="ccst1" d="M17.2 10c0 1-.3 1.8-.8 2.5s-1.2 1-2.1 1c-.6 0-1.2-.2-1.6-.6-.5-.4-.8-.9-1-1.6l1.1-.5c.2.4.4.7.6 1 .3.2.6.4.9.4.4 0 .7-.2 1-.6.3-.4.4-.9.4-1.5 0-.7-.1-1.2-.4-1.5-.3-.6-.8-.8-1.5-.8h-.5v-.6l1.9-3.3h-2.3L12.2 5h-.4V2.5h5.3v.7l-2 3.4c.7.2 1.2.6 1.6 1.2.3.7.5 1.4.5 2.2z"/></g><g><path class="ccst4" d="M31.4 2.7c3.5 1.6 4.3-1.3 4.3-1.3S35.1 5 32 6.5L31 7l-5.1-2.5L31 2.4c-.1.1-.2 0 .4.3z"/><path class="ccst5" d="M30.4 13.4l-4.8-2.5V5.6L30.4 8z"/><path class="ccst6" d="M31.4 13.4l4.7-2.5V5.6L31.4 8z"/></g></g></g></svg>