<?xml version="1.0" encoding="utf-8"?><svg version="1.1" id="apLayer_1" xmlns="http://www.w3.org/2000/svg" x="0" y="0" viewBox="-10 -10 94.9 80.9" xml:space="preserve" width="94.9" height="80.9"><style>.apst0{fill:#fff}</style><path class="apst0" d="M72.8 1.1c-3 1.8-6.3 3-9.8 3.7C60.3 1.9 56.3 0 51.9 0c-8.5 0-15.4 6.9-15.4 15.4 0 1.2.1 2.4.4 3.5-12.8-.7-24.1-6.8-31.7-16.1-1.3 2.3-2.1 4.9-2.1 7.7 0 5.3 2.7 10 6.8 12.8-2.5-.1-4.9-.8-7-1.9v.2C3 29 8.3 35.3 15.3 36.7c-1.3.4-2.6.5-4 .5-1 0-2-.1-2.9-.3 2 6.1 7.6 10.5 14.4 10.7-5.3 4.1-11.9 6.6-19.1 6.6-1.2 0-2.5-.1-3.7-.2 6.8 4.4 14.9 6.9 23.6 6.9 28.3 0 43.7-23.4 43.7-43.7v-2c3-2.2 5.6-4.9 7.7-8-2.8 1.2-5.7 2-8.8 2.4 3-1.9 5.5-4.9 6.6-8.5z"/></svg>