<?xml version="1.0" encoding="utf-8"?><svg version="1.1" id="aqtypescript-logo" xmlns="http://www.w3.org/2000/svg" x="0" y="0" viewBox="-50 -50 600 234.2" xml:space="preserve" width="120" height="46.84"><style>.aqst0{fill:#007acc}</style><path class="aqst0" d="M71.6 19.8H47v76.4H36.9V19.8H12.4v-9h59.2v9zm46.5 15.4L90 106c-5 12.6-12 18.9-21 18.9-2.6 0-4.7-.3-6.3-.8v-8.7c2.1.8 4.1 1.1 5.7 1.1 5 0 8.6-3 11.1-8.9L84.3 96 60.5 35.2h10.8l16.5 46.9c.2.6.6 2.1 1.2 4.7h.3c.2-.9.6-2.4 1.2-4.5l17.3-47.1h10.3zM134 87.3h-.3v36.8H124v-89h9.8v10.7h.3c4.8-8.1 11.9-12.2 21-12.2 7.8 0 14 2.7 18.3 8.1 4.4 5.4 6.6 12.8 6.6 21.9 0 10.2-2.6 18.3-7.5 24.5s-11.7 9.2-20.3 9.2c-7.7.4-13.8-3.1-18.2-10zm-.1-24.5v8.6c0 5.1 1.7 9.3 5 12.8s7.4 5.3 12.5 5.3c5.9 0 10.5-2.3 14-6.8 3.3-4.5 5-10.8 5-18.9 0-6.8-1.5-12.2-4.7-15.9-3.2-3.9-7.4-5.7-12.8-5.7-5.7 0-10.2 2-13.7 5.9-3.7 3.7-5.3 8.7-5.3 14.7zm106 5.3h-43c.2 6.8 2 12 5.4 15.8 3.5 3.8 8.3 5.6 14.4 5.6 6.9 0 13.2-2.3 18.9-6.8v9.2c-5.4 3.9-12.5 5.9-21.2 5.9-8.6 0-15.3-2.7-20.3-8.3-5-5.6-7.4-13.4-7.4-23.3 0-9.5 2.7-17.3 8.1-23.1 5.4-6 12-9 20-9s14.1 2.6 18.5 7.8c4.4 5.1 6.6 12.3 6.6 21.5v4.7zm-10.1-8.3c0-5.7-1.4-10.1-4.1-13.2-2.7-3.2-6.5-4.7-11.1-4.7-4.7 0-8.6 1.7-11.7 5-3.2 3.3-5.3 7.7-6 12.9h32.9zm14.9 33.4v-6.8c6.2 3.9 12.3 5.9 18.6 5.9 6.6 0 11.7-1.4 15.2-4.2 3.5-2.9 5.1-6.6 5.1-11.6 0-4.4-1.2-7.8-3.5-10.5-2.3-2.6-7.4-6.2-15-10.7-8.7-5.1-14.1-9.3-16.4-12.6-2.3-3.5-3.5-7.4-3.5-11.7 0-6 2.4-11.1 7.1-15.3 4.7-4.2 11-6.3 18.8-6.3 5.1 0 10.2.9 15.2 2.6v6c-5-2.3-10.4-3.5-16.1-3.5-5.9 0-10.4 1.5-13.8 4.4-3.5 3-5.1 6.6-5.1 11.1 0 4.4 1.2 7.8 3.5 10.4s7.4 6.2 15 10.5c8 4.5 13.2 8.6 15.9 12 2.7 3.5 3.9 7.5 3.9 12.2 0 6.6-2.3 11.9-6.8 16.1-4.5 4.2-11 6.2-19.2 6.2-3 0-6.3-.5-10.2-1.4-3.9-.9-6.8-1.6-8.7-2.8zm95.7.3c-4.5 2.7-9.9 4.2-16.2 4.2-8.3 0-15-2.9-20.1-8.6-5.1-5.7-7.7-13.1-7.7-22.4 0-9.6 2.9-17.6 8.6-23.8 5.7-6.2 13.1-9.3 22.1-9.3 4.7 0 9.2.9 13.5 2.9v6.2c-4.4-2.7-9.2-4.1-14.3-4.1-7.2 0-12.9 2.6-17.4 7.7-4.5 5.1-6.6 11.9-6.6 20 0 8 2.1 14.3 6.2 19.1 4.1 4.8 9.5 7.2 16.1 7.2 6.2 0 11.4-1.7 15.9-4.8v5.7zm36.4-52.6c-1.8-1.4-3.9-2-6.5-2-4.8 0-8.9 2.6-12 7.5-3.3 5-4.8 12-4.8 21.2v28.7h-5.4V35.2h5.4v13.5h.3c1.4-4.7 3.6-8.3 6.6-10.8 3-2.6 6.5-3.9 10.5-3.9 2.3 0 4.4.3 6 1.1V41h-.1zm8.7-21.1c-1.2 0-2.3-.5-3.2-1.4-.9-.9-1.4-2-1.4-3.3s.5-2.4 1.4-3.2c.9-.8 2-1.2 3.2-1.2 1.2 0 2.3.5 3.3 1.2.9.8 1.4 1.8 1.4 3.2 0 1.2-.5 2.4-1.4 3.3-1 1-2.1 1.4-3.3 1.4zm-2.7 76.4v-61h5.4v61h-5.4zM407 85.4h-.3v38.9h-5.4V35.2h5.4v12.6h.3c2.3-4.5 5.3-8 9.3-10.4 4.1-2.4 8.6-3.6 13.4-3.6 7.8 0 13.8 2.7 18.2 8 4.4 5.4 6.5 12.6 6.5 21.8 0 10.2-2.6 18.5-7.5 24.8-5 6.3-11.6 9.5-19.7 9.5-9.1-.2-15.8-4.3-20.2-12.5zm-.3-22.7v7.7c0 6.2 2 11.4 5.7 15.8 3.9 4.4 8.9 6.6 15.2 6.6 6.2 0 11.3-2.7 15.2-8 3.9-5.4 5.9-12.3 5.9-21 0-7.7-1.8-13.7-5.4-18.2-3.6-4.5-8.3-6.8-14.3-6.8-7.1 0-12.6 2.4-16.5 7.2-4 4.8-5.8 10.2-5.8 16.7zm80.9 32.6c-2.9 1.4-5.6 2-8 2-9 0-13.5-5.4-13.5-16.2V40.3h-11v-5h11V19.4l2.7-.9 2.7-.9v17.7h16.1v5h-16.1v40.3c0 4.2.6 7.2 2 9.2 1.4 2 3.6 2.9 6.8 2.9 2.3 0 4.7-.8 7.4-2.3v4.9z"/></svg>