<?xml version="1.0" encoding="utf-8"?><svg version="1.1" id="cjCxml-logo" xmlns="http://www.w3.org/2000/svg" x="0" y="0" viewBox="-55.08 -55.08 660.96 660.96" xml:space="preserve" width="120" height="120"><style>.cjst0{fill:#b94b00}</style><path class="cjst0" d="M475.1 132c0-2.5-.8-5-2.6-7L366.3 3.7s-.1 0-.1-.1c-.6-.7-1.4-1.3-2.2-1.8-.2-.1-.5-.3-.7-.4-.7-.4-1.4-.7-2.1-.9-.2-.1-.4-.1-.6-.2-.7-.2-1.6-.3-2.4-.3h-261C85.3 0 75.6 9.7 75.6 21.6v507.6c0 11.9 9.7 21.6 21.6 21.6h356.4c11.9 0 21.6-9.7 21.6-21.6v-396c0-.4-.1-.8-.1-1.2zM177.5 510.5l-10.7-21.3c-4.4-8.2-7.2-14.3-10.5-21.2h-.3c-2.4 6.8-5.4 12.9-9.1 21.2l-9.8 21.3h-30.4l34.1-59.6-32.9-58.2h30.6l10.3 21.5c3.5 7.2 6.1 12.9 8.9 19.6h.3c2.8-7.5 5.1-12.8 8-19.6l10-21.5h30.4l-33.2 57.5 35 60.3h-30.7zm146.5 0l-1.8-45.1c-.5-14.2-1.1-31.3-1.1-48.4h-.5c-3.7 15-8.6 31.8-13.1 45.6l-14.3 46h-20.8L259.8 463c-3.8-13.8-7.9-30.6-10.7-46h-.3c-.7 15.9-1.2 34.1-2.1 48.8l-2.1 44.8H220l7.5-117.8H263l11.5 39.3c3.7 13.6 7.3 28.3 10 42.1h.5c3.3-13.6 7.3-29.2 11.2-42.3l12.6-39.2h34.8l6.5 117.8H324zm120.1 0h-73.6V392.7h26.7v95.4h46.9v22.4zm9.5-143.8H97.2V21.6h250.2v110.5c0 6 4.8 10.8 10.8 10.8h95.4v223.8z"/><path class="cjst0" d="M118.1 234.9l62.3 28.9v-13.7l-47.1-20.7v-.2l47.1-20.7v-13.7l-62.3 28.9zM376.8 208.5l48.2 20.7v.2l-48.2 20.7v13.7l62.4-28.5v-12l-62.4-28.5zM277.4 154.9c-41.1 0-74.4 33.3-74.4 74.4s33.3 74.4 74.4 74.4 74.4-33.3 74.4-74.4c0-41.1-33.3-74.4-74.4-74.4zm27.9 29.5l5.3-3.6s-2.2-5.7-1.9-8.5c1.3-.6 6.5 2.1 11 6.8-3 11.1-10 9.8-10 9.8s-5-.1-4.4-4.5zm-44.8 65.5c-.3 1.7-2.3 5.7-3.7 8.3-1.3 2.7-2 3.7-3.7 5-1.7 1.4-2.7 3.7-2.7 3.7l-.3 5.7s.7 4.7 1.7 6.3c1 1.7-3.6 11.6-3.6 11.6-2.9-.6-4.5-3.9-5.5-6.6-1-2.7-2.3-4.1-2-7.1.3-3-2.6-4.6-3.6-6.2-1-1.7-2.3-4-2.3-5.7 0-1.7-3.7-4-3.7-4s-6.7-3-7.7-4.3c-1-1.3-2-7-2.3-9.3-.3-2.3 1-8.3 1-8.3s2.7-2 1-3.7c-1.7-1.7-2-6-2-6l-3-3.3s-2.3-3.3-2.7-5c-.3-1.7 0-2.7.3-4.3.3-1.7-.7-4.7-.7-6.3 12.4-30.5 33.3-37.6 33.3-37.6l1.7 7s-3.7 1-5.6.3c-2-.7-3-.7-3-.7l-2.7 3.7s-1 2.3-1.3 3.7.7 3.3.7 3.3 4.7.3 4.7-1-.7-2-.7-2l-.7-2.3s3-1.7 11-1 5 6.3 8.3 7.7c3.3 1.3-2.7 6-4 8.6-1.3 2.7-3.3-3.3-3.3-3.3s2-2.3-1.3-3c-3.3-.7-5.5 6-3.9 5.7 1.7-.3 3.5 1.8 3.2 3.4-.3 1.7-.3 1.5-2 5.2s-5.3 6.4-5.3 6.4-1.7-1-.7 1-.3 6.7-.3 8c0 1.3-4-2.3-4.7-5.7-.7-3.3-4.6-.4-5.9-.1-1.3.3-3.8-.6-4.4-2.2-.7-1.7-6.7 3.3-8.4 4.3-1.7 1-1 3.7 1.7 2.3 2.7-1.3 5-.3 4.3 2.3-.7 2.6-3.3 1-3 2.6.3 1.7 3 3.3 3.7 5.7.7 2.3 7 .3 9-.7s7.7-2 8.3.7c.7 2.7 7 3.6 9.3 4.3 2.3.7 7 1 9.7 3.7 2.8 2.6-1.8 7.6-2.2 9.2zm15-77.9c-.3 3.3-5.6 7.7-5 9 .7 1.3 0 7-4.7 2s-9.3-6.7-9-10c.1-.7 4.8-1.7 4.9-2.9 7.1-6.6 18.3-5.2 19.2-3.7-2 3.4-5.1 2.3-5.4 5.6zm57.8 22.4c4.5 7.7 11.1 28.3 8.7 32-1.5-.7-2.7-1.2-2.7-1.2h-8.9l5.3 6.2s2.6 3.8 6.2 3.5c-2.4 27.8-25.6 45.7-25.6 45.7-3.5-3.6-1.8-6.6-1.8-6.6l1-5.3.6-9s0-9.3-8.9-4.9c-9.5 2.4-5.6 2.4-15.2 3.1-9.7.7-8.1-19.7-8.1-19.7 0-30.5 23.4-7.5 23.4-7.5 13.3 8.9 15.1-7.4 15.1-7.4l9.8-3.5.9-4.4-1.4-6.2-14.2-5.9s-1.4 4.6 2.3 10.3c0 0-1.2 6.4-4.2 4.8l-8.2-4.1s-2.8-1.2-7.2 1.5c-4.5 2.7-12-.1-12-.1s.6-4.5 5.3-6.8l3.8-2.5s-1-4.6-.1-8.1 2.4-.4 6-3.1c3.5-2.6 6 5.2 11.3 4.3 5.3-.9 2.7-1.8 6.2-3.5 3.6-1.8 6.2 3.5 6.2 3.5l7.1.9c0-.1-1.1-8.1-.7-6z"/></svg>