<?xml version="1.0" encoding="utf-8"?><svg version="1.1" id="ckxquery-logo" xmlns="http://www.w3.org/2000/svg" x="0" y="0" viewBox="-87.2 -87.2 1046.4 940.4" xml:space="preserve" width="120" height="107.84"><style>.ckst0{fill:#02b883}</style><path class="ckst0" d="M614.9 262.5c0-.7-.2-1.4-.4-2.1-.1-.3-.2-.5-.3-.8-.4-.9-.9-1.7-1.6-2.3l-112-112c-.7-.7-1.5-1.2-2.3-1.6-.2-.1-.5-.2-.7-.3-.7-.2-1.4-.4-2.1-.4-.1 0-.3-.1-.5-.1H297c-4.4 0-8 3.6-8 8v49h-40c-4.4 0-8 3.6-8 8v87H128.6c-9.6 0-17.3 7.8-17.3 17.3v120.6c0 9.6 7.8 17.3 17.3 17.3l112.4-.3V615c0 4.4 3.6 8 8 8h263.3c4.4 0 8-3.6 8-8v-40H607c4.4 0 8-3.6 8-8V263c0-.2-.1-.3-.1-.5zM503 170.3l84.7 84.7H503v-84.7zM257 216h32v79h-32.1.1v-79zM128.6 434.2c-.7 0-1.3-.6-1.3-1.3V312.3c0-.7.6-1.3 1.3-1.3H470c.7 0 1.3.6 1.3 1.3v120.6c0 .7-.6 1.3-1.3 1.3H128.6zM504.3 607H257V449.9h32V567c0 4.4 3.6 8 8 8h207.3v32zm94.7-48H305V449.9l165 .3c9.6 0 17.3-7.8 17.3-17.3V312.3c0-9.6-7.8-17.3-17.3-17.3l-165-1V158l182 1v104c0 4.4 3.6 8 8 8h104v288z"/><path class="ckst0" d="M375.3 237.9c-.3 0-.7-.1-1-.2l-48.4-22.5c-.8-.4-1.4-1.2-1.4-2.2v-8.7c0-.9.5-1.8 1.4-2.2l48.4-22.5c.7-.3 1.6-.3 2.3.2.7.4 1.1 1.2 1.1 2v10.7c0 1-.6 1.8-1.4 2.2l-31.8 13.9 31.8 13.9c.9.4 1.4 1.2 1.4 2.2v10.7c0 .8-.4 1.6-1.1 2-.4.4-.8.5-1.3.5zM177.2 402.8l-5.9-11.9c-2.4-4.6-4-8-5.8-11.8h-.2c-1.4 3.8-3 7.2-5.1 11.8l-5.5 11.9h-17l19-33.2-18.3-32.4h17.1l5.7 12c1.9 4 3.4 7.2 5 10.9h.2c1.6-4.2 2.8-7.1 4.5-10.9l5.6-12h17L175 369.3l19.5 33.6h-17.3v-.1zM254.8 414.1c-9.4-2.7-17.1-5.6-25.9-9.3-1.5-.6-3-.9-4.6-1-14.8-1-28.6-11.9-28.6-33.3 0-19.7 12.5-34.5 32.1-34.5 20.1 0 31.1 15.2 31.1 33.1 0 14.9-6.9 25.4-15.6 29.3v.4c5.1 1.5 10.7 2.6 15.9 3.7l-4.4 11.6zm-11.7-44.4c0-12-5.7-21.9-15.8-21.9s-16 9.9-16 22.2c-.1 12.5 5.9 22 15.9 22 10.1 0 15.9-9.4 15.9-22.3zM313.5 387.5c0 6.2.2 11.3.4 15.3H301l-.7-6.7h-.3c-1.9 2.9-6.3 7.8-14.9 7.8-9.6 0-16.8-6-16.8-20.8v-28h14.9v25.6c0 6.9 2.2 11.1 7.4 11.1 4.1 0 6.4-2.8 7.4-5.2.4-.9.5-2 .5-3.2V355h14.9v32.5h.1zM336.8 383.7c.5 6.1 6.5 9.1 13.4 9.1 5.1 0 9.2-.7 13.2-1.9l1.9 10c-4.9 1.9-10.8 2.9-17.2 2.9-16.2 0-25.4-9.4-25.4-24.3 0-12.1 7.5-25.4 24.1-25.4 15.4 0 21.2 12 21.2 23.8 0 2.5-.3 4.8-.5 5.8h-30.7zm17.4-10.2c0-3.6-1.6-9.6-8.4-9.6-6.2 0-8.8 5.7-9.2 9.6h17.6zM376.8 370.8c0-7-.2-11.6-.4-15.7h12.8l.5 8.8h.4c2.4-6.9 8.3-9.8 12.9-9.8 1.4 0 2 0 3.1.2v13.9c-1.1-.2-2.3-.4-4-.4-5.5 0-9.2 2.9-10.1 7.5-.2 1-.3 2.1-.3 3.3v24.2h-14.8v-32h-.1zM426.7 355.1l7.1 23.4c.8 2.8 1.8 6.3 2.3 8.9h.3c.7-2.5 1.5-6.1 2.1-8.9l5.8-23.4h15.9l-11.1 31.4c-6.8 18.9-11.4 26.5-16.8 31.3-5.2 4.5-10.6 6-14.3 6.5l-3.1-12.6c1.9-.3 4.2-1.2 6.4-2.5 2.2-1.2 4.7-3.5 6.1-5.9.5-.7.8-1.5.8-2.1 0-.5-.1-1.3-.7-2.4l-17.4-43.6 16.6-.1zM525 538.2c-.5 0-.9-.1-1.3-.4-.7-.4-1.1-1.2-1.1-2v-10.7c0-1 .6-1.8 1.5-2.2l32.5-13.9-32.6-14c-.9-.4-1.5-1.2-1.5-2.2v-10.7c0-.8.4-1.6 1.1-2s1.6-.5 2.3-.2l48.4 22.2c.9.4 1.4 1.2 1.4 2.2v9.3c0 .9-.5 1.8-1.4 2.2L526 538c-.4.1-.7.2-1 .2z"/></svg>