<?xml version="1.0" encoding="utf-8"?><svg version="1.1" id="aradam-retter" xmlns="http://www.w3.org/2000/svg" x="0" y="0" viewBox="-138.4 -138.4 1660.8 420.8" xml:space="preserve" width="120" height="30.4"><style>.arst0{fill:none;stroke:#000;stroke-width:4;stroke-linecap:round;stroke-linejoin:round;stroke-miterlimit:10}</style><path id="ara_1_" class="arst0" d="M11.2 133.5V32.2l21.7-21.7H98l21.7 21.7v101.3H83.6V90.1H47.4v43.4H11.2zm72.4-79.6v-7.2H47.4v7.2h36.2z"/><path id="ard" class="arst0" d="M140.2 133.5v-123H227l21.7 21.7v79.6L227 133.5h-86.8zm72.3-36.2V46.7h-36.2v50.7h36.2z"/><path id="ara" class="arst0" d="M269.1 133.5V32.2l21.7-21.7h65.1l21.7 21.7v101.3h-36.2V90.1h-36.2v43.4h-36.1zm72.3-79.6v-7.2h-36.2v7.2h36.2z"/><path id="arm" class="arst0" d="M398 133.5V32.2l21.7-21.7h36.2l7.2 7.2 3.6 3.6 10.9-10.9h36.2l21.7 21.7v101.3h-36.2V46.7h-14.5v86.8h-36.2V46.7h-14.5v86.8H398z"/><path id="arr_1_" class="arst0" d="M619.6 133.5v-123h86.8l21.7 21.7v28.9l-7.2 7.2-3.6 3.6 10.9 10.9v50.6H692V90.1h-36.2v43.4h-36.2zM692 53.9v-7.2h-36.2v7.2H692z"/><path id="are_1_" class="arst0" d="M748.6 133.5v-123h108.5v36.2h-72.4v7.2h43.4v36.2h-43.4v7.2h72.4v36.2H748.6z"/><path id="art_1_" class="arst0" d="M913.6 133.5V46.7h-36.2V10.5H986v36.2h-36.2v86.8h-36.2z"/><path id="art" class="arst0" d="M1042.6 133.5V46.7h-36.2V10.5h108.5v36.2h-36.2v86.8h-36.1z"/><path id="are" class="arst0" d="M1135.3 133.5v-123h108.5v36.2h-72.4v7.2h43.4v36.2h-43.4v7.2h72.4v36.2h-108.5z"/><path id="arr" class="arst0" d="M1264.2 133.5v-123h86.8l21.7 21.7v28.9l-7.2 7.2-3.6 3.6 10.9 10.9v50.6h-36.2V90.1h-36.2v43.4h-36.2zm72.4-79.6v-7.2h-36.2v7.2h36.2z"/></svg>