<?xml version="1.0" encoding="utf-8"?><svg version="1.1" id="atappel" xmlns="http://www.w3.org/2000/svg" x="0" y="0" viewBox="-120 -120 1440 1440" xml:space="preserve" width="120" height="120"><style>.atst0{fill:#5190cc}</style><path class="atst0" d="M603.6 492c-1.2-130.7-88.1-209.8-231.7-211.8-144.4-2.1-237.5 82.7-237.5 216-.4 135.3 86.1 212.7 237.1 212.2S605.3 631 603.6 492zM368.2 598.3c-65.4-2.5-82.3-52.1-81.1-103.8.8-52.1 21.1-103.4 84.8-100.9 62.9 2.5 77.8 52.5 82.7 108.4-7.8 48.7-19.4 98.4-86.4 96.3zM756.3 652.5c-177.5.4-297.9 110.5-297.1 271.4.8 162.2 117.1 264.4 300.4 263.1 186.6-1.2 290.4-98.9 288.4-271.4-2.5-161.7-114.6-263.5-291.7-263.1zm105.1 273c-2.9 66.6-25.7 123.7-104.3 128.7-65 4.1-106.7-51.7-105.5-148.9 4.1-51.7 21.1-109.6 102.6-112.5 66.2-3 110.9 52.1 107.2 132.7zM746.4 333.1c109.2-.4 172.9-57.1 174.1-155.1C921.7 78.7 850.2 12.5 743 14.2c-103.4 1.7-176.2 66.2-177.5 157.6-1.2 97.6 71.2 162.1 180.9 161.3zm-1.7-231.3c47.6 1.2 64.5 35.2 63.3 77.4-1.2 38.1-19.4 71.2-61.6 70.3-46.8-.8-63.3-34.3-61.6-78.2 1.2-38.9 15.2-70.7 59.9-69.5z"/></svg>