<?xml version="1.0" encoding="utf-8"?><svg version="1.1" id="auappel" xmlns="http://www.w3.org/2000/svg" x="0" y="0" viewBox="-499.05 -499.05 5988.6 1750.3" xml:space="preserve" width="120" height="35.07"><style>.aust0{fill:#5190cc}</style><path class="aust0" d="M1701.4 599.7c-3.4-6.5-10.8-5.3-17-5.3-43.9-.3-83.3-16.7-124.4-33.8 6.3-13.3 17.4-14.6 25.6-20 85.8-56.3 113.7-138.3 99-235.3-13.4-88.6-65.4-147.2-152.1-174-54.2-16.7-109.3-17.8-163.9-4.5-88.6 21.5-146.5 76.9-165.7 166.4-19.6 91.5-.2 175.6 78.1 232.2 71.8 52 147.7 98.7 230.9 133.3 66.2 27.5 123.2 37.3 169.1-31.1 2.7-4 7.8-6.3 11.2-10 4.8-5.1 14.1-8.6 9.2-17.9zm-257-137.2c-68.4.8-114.8-46.4-114.3-116.3.5-68.3 45.6-113.6 113-113.5 66.8.1 112.6 46.5 112.9 114.3.5 67.6-45.1 114.7-111.6 115.5zM2181.7 123.9c-35.5-1-44.1 10-43 43.9 2.2 67.7 3 135.9-1.8 203.4-4.1 58.6-40.2 91.4-90.1 93.5-54.3 2.2-88.1-26.5-99.5-87.3-9.6-51-3.5-102.8-4-154.2-.9-103.6-.2-102.8-103.9-99-22.7.8-26.9 9.4-26.7 29.3 1 79.2-.9 158.4 1.3 237.5 2.2 76.3 41.2 131.1 110.5 161.6 74.7 32.8 152 33.2 227.5 2.6 73.2-29.7 113.6-85.1 116.5-164.9 1.4-37.6.2-75.4.2-113.1h.8v-64.1c0-88.5-.1-86.7-87.8-89.2zM4902.8 313.2c-17.2-93.3-78.6-160.9-166.4-178.8-85.8-17.5-173-7.1-259.6-9.4-20.2-.6-17.3 13.8-17.3 26-.1 65.3-.1 130.6-.1 195.9 0 65.3.6 130.6-.4 195.9-.3 20.2 4.1 29.1 26.8 28.6 75.4-1.5 150.9 0 226.4-1.5 35.4-.7 69.3-8.9 99.9-29 72.2-47.4 107.7-135.6 90.7-227.7zm-139.9 98.4c-11.7 50-56.9 59.9-100 66.3-73.6 10.9-73.8 10.1-73.8-62.7v-67.9c0-36.4.5-72.9-.2-109.3-.3-15.6 4.9-21.6 21.4-23 146.8-11.8 180.1 78.4 152.6 196.6zM4308.7 464c-47.8 1.4-95.7-.6-143.5.9-23.1.7-30.6-6.6-30.1-29.9 1.3-71.7.5-143.3.5-215 0-97.8 0-96.8-99.5-95.9-26 .2-31.3 9.3-30.8 32.8 1.3 62.8.5 125.7.5 188.6 0 65.4.9 130.8-.5 196.2-.5 23.1 6.2 30.2 29.7 29.8 75.5-1.4 151.1-.5 226.7-.5 78.2 0 77.5 0 75.3-78.5-.8-20.9-6.4-29.1-28.3-28.5zM3630.5 118.3c-147.2-.3-245 90-245.8 226.7-.8 139.2 97.2 232.4 244.5 232.5 145 .1 245.7-92.5 247.3-227.4 1.5-137.4-98.4-231.5-246-231.8zm.3 344.1c-67.3 1-116-48.5-114.8-116.6 1.1-66.7 49-114 114.5-113.2 67.8.9 111.5 45.9 111.5 114.7-.2 69.8-42.9 114.1-111.2 115.1zM3124.7 214.9c37.6 2.1 75.6-1.1 113.2 1 26.9 1.5 41.2-5.1 36.4-34.8-1.2-7.3-1-15.2 0-22.6 3.5-25.6-5.6-34.9-32.8-34.4-81.8 1.7-163.6 1.7-245.4 0-27.6-.6-33.6 9.2-33 34.6 1.6 62.8.5 125.6.5 188.5v124.4c0 101.9 0 100.9 102.7 100 26.7-.2 31.4-10.3 30.6-33.2-1.3-38.9.9-78-.8-116.8-1.1-24.1 5.7-33.7 31.3-32.4 38.9 2 78-.7 117 1 22.8 1 32.8-5.9 29.9-29.4-1.4-11.1-1.2-22.7 0-33.9 2.4-22.2-8.1-27.9-28.6-27.3-40.2 1.2-80.6-1.4-120.8.8-37.2 2.1-28.1-23.4-28-42.7.2-19.1-9.6-44.9 27.8-42.8zM2723.5 229.1c-14.9-34.3-19.2-82.3-48.8-98.5-29.2-16.1-73.5-3.7-111.1-6.2-22.8-1.5-33.1 7.7-41.5 27.9-35.2 84.6-72.1 168.5-108.3 252.7-23.2 53.9-46.2 107.9-71 166h68.7c64.6 0 65.9.5 88.7-61.4 8.4-22.8 19.6-31.3 43.5-29.6 30.1 2 60.4.5 90.6.5 65.4 0 65.1.1 90.1 60 4.9 11.7 4.1 29.9 23.2 30.2 39.3.6 78.6.2 122.4.2-50.4-118.3-98-230.2-146.5-341.8zm-73 174.3c-103.2 14.3-110.4 6-73-88.1 8.7-21.8 17.5-43.5 30-74.6 21 53.5 37.9 97.4 55.6 141.1 5.6 13.8 3.9 19.3-12.6 21.6zM1116.2 543.6c-45.3-106.3-90.4-212.7-136.8-318.6-14.5-33.1-18.3-79.7-47.7-95.1-28.9-15.1-71.2-4.5-107.7-5.2-2.5 0-5.1.3-7.6 0-17.7-2.4-27.1 5.7-34.1 22-56.6 132.9-113.7 265.6-171.4 398-8.3 19-7.5 27.4 16.1 26.4 27.7-1.2 55.5-1.2 83.1.1 18.1.8 29.8-5.3 32.7-23 10.1-60.9 47.6-78.1 104.3-68.2 14.7 2.5 30.2.4 45.3.4 65.4 0 65.3 0 89.8 60.5 5.8 14.4 7.4 31.7 31.1 30.5 36.2-1.8 72.6-.5 108.2-.5 4-12-2-19.5-5.3-27.3zM903.3 403c-1.2-.1-2.5 0-3.8.1-102 7-102.4 6.9-64.5-87 9.2-22.7 14.3-47.5 31.6-70.5C885 292 902.4 336 919.8 380c6.4 16.2.8 23.8-16.5 23z"/><g><path class="aust0" d="M228.8 292.4c-.6-55.6-37.6-89.4-98.7-90.2-61.5-.8-101.1 35.2-101.2 92-.1 57.6 36.7 90.5 101.1 90.3 64.2-.1 99.5-33 98.8-92.1zm-100.3 45.2c-27.9-1-35-22.2-34.6-44.3.4-22.2 8.9-44 36.2-43 26.7 1 33.1 22.3 35.2 46.1-3.2 21-8.3 42.2-36.8 41.2zM293.7 360.7c-75.5.1-126.8 47-126.5 115.5.3 69.1 49.9 112.6 127.9 112.1 79.4-.5 123.6-42.1 122.7-115.5-.8-68.9-48.7-112.2-124.1-112.1zm44.9 116.2c-1.3 28.3-10.9 52.6-44.4 54.7-27.7 1.7-45.5-22-44.9-63.4 1.8-22 9-46.7 43.6-47.9 28.1-1.1 47.2 22.4 45.7 56.6zM289.5 224.8c46.5-.2 73.6-24.3 74.2-66.1.6-42.2-30-70.5-75.5-69.8-44.1.7-75 28.1-75.6 67.1-.5 41.5 30.2 69 76.9 68.8zm-.7-98.6c20.2.5 27.5 15 26.9 32.9-.6 16.2-8.3 30.3-26.3 30-19.9-.3-27-14.6-26.2-33.3.7-16.6 6.7-30 25.6-29.6z"/></g></svg>