<?xml version="1.0" encoding="utf-8"?><svg version="1.1" id="bdicons" xmlns="http://www.w3.org/2000/svg" x="0" y="0" viewBox="-10 -10 106.8 101.9" xml:space="preserve" width="106.8" height="101.9"><style>.bdst0{fill:#fff}.bdst1{fill:#68b6e8}</style><path class="bdst0" d="M22 7L12 72l58-9 5-41z"/><path class="bdst1" d="M17.9 3.1L6.4 78.9 77.8 70l2.7-52.3L17.9 3.1zm44.7 30.8V35c0 1.6-.2 3.3-.6 4.9-2.1 9.3-10 18.3-23 18.3-4.7 0-9-1.4-12.7-3.7.7.1 1.3.1 2 .1 3.9 0 7.5-1.3 10.3-3.5-3.6-.1-6.7-2.4-7.7-5.7.5.1 1 .1 1.6.1.8 0 1.5-.1 2.2-.3-2.8-.6-5.1-2.5-6.1-5-.4-.9-.6-1.9-.6-3v-.1c1.1.6 2.4 1 3.8 1-2.2-1.5-3.7-4-3.7-6.8 0-1.5.4-2.9 1.1-4.1 4.1 4.9 10.2 8.2 17.1 8.5-.2-.4-.3-1-.3-1.7 0-4.5 3.7-8.2 8.3-8.2 2.4 0 4.5 1 6 2.6 1.9-.4 3.7-1 5.3-2-.6 2-2 3.6-3.7 4.6 1.7-.2 3.3-.6 4.8-1.3-1.1 1.6-2.5 3.1-4.1 4.2z"/></svg>