<?xml version="1.0" encoding="utf-8"?><svg version="1.1" id="bfexistdb-logo-white" xmlns="http://www.w3.org/2000/svg" x="0" y="0" viewBox="-30 -30 360 200" xml:space="preserve" width="120" height="66.67"><style>.bfst0{fill:#737577}.bfst1{fill:#858789}.bfst2{fill:#fff}.bfst3{fill:#08c}</style><g id="bflayer2"><g id="bfexist-logo" transform="matrix(.47807 0 0 .47807 13.688 44.699)"><path id="bfpath3823" class="bfst0" d="M169.4 33.8c0 10.3-8.4 18.6-18.6 18.6-10.3 0-18.6-8.4-18.6-18.6 0-10.3 8.4-18.6 18.6-18.6 10.3 0 18.6 8.3 18.6 18.6"/><path id="bfpath3825" class="bfst1" d="M196.4 28.3c0 5-4.1 9.1-9.1 9.1s-9.1-4.1-9.1-9.1 4.1-9.1 9.1-9.1 9.1 4.1 9.1 9.1"/><path id="bfpath3827" class="bfst1" d="M191.4 61.1c0 6.4-5.2 11.6-11.6 11.6-6.4 0-11.6-5.2-11.6-11.6 0-6.4 5.2-11.6 11.6-11.6 6.4 0 11.6 5.2 11.6 11.6"/><path id="bfpath3829" class="bfst1" d="M126.4 114c0 8.1-6.5 14.6-14.6 14.6s-14.6-6.5-14.6-14.6 6.5-14.6 14.6-14.6c8 0 14.6 6.5 14.6 14.6"/><path id="bfpath3831" class="bfst1" d="M101.4 13.6c0-4.2 3.4-7.6 7.6-7.6 4.2 0 7.6 3.4 7.6 7.6s-3.4 7.6-7.6 7.6c-4.3-.1-7.6-3.5-7.6-7.6"/><path id="bfpath3833" class="bfst1" d="M124.4 79c0 2.8-2.3 5-5 5s-5-2.3-5-5c0-2.8 2.3-5 5-5s5 2.2 5 5"/><path id="bfpath3835" class="bfst1" d="M236.4 127c0 3.9-3.2 7.1-7.1 7.1s-7.1-3.2-7.1-7.1c0-3.9 3.2-7.1 7.1-7.1s7.1 3.2 7.1 7.1"/><path id="bfpath3837" class="bfst2" d="M26.5 52.7h52.2c-1.9-7.2-11.3-17.8-27.3-19.1-15.7.8-23.4 11.7-24.9 19.1M6.4 61.5c.2-24.4 19.7-44.9 45-44.9 24 0 43 17.4 44.4 41.7v.9c0 .4 0 1.3-.2 1.6C95 65.1 91.2 68 86 68H27.5c.9 4.1 3 8.8 6.3 11.9 3.9 4.3 11.2 7.6 17.7 8.1 6.6.5 14.6-1.1 19.2-4.5 3.9-4 11.4-3.4 13.8-.5 2.4 2.5 4.2 7.9 0 11.7-9 8.1-19.9 11.9-33 11.9-25.4-.2-44.9-20.6-45.1-45"/><path id="bfpath3839" class="bfst2" d="M260.4 26.6v70.1c0 5.4-4.2 9.7-10 9.7-5.5 0-10-4.3-10-9.7V26.6c0-5.8 4.4-9.9 10-9.9 5.7 0 10 4.1 10 9.9"/><path id="bfpath3841" class="bfst2" d="M267.4 81c3.3-4.3 9.8-4.8 13.8-1.4 4.8 3.9 13.1 8.1 20.3 7.9 5 0 9.6-1.6 12.5-3.4 2.6-2.2 3.3-4 3.3-5.4 0-.9-.2-1.3-.6-1.8-.2-.5-.9-1.3-2.4-2.2-2.6-1.8-8.1-3.8-14.8-5h-.2c-5.7-1.1-11.2-2.5-16-4.7-5-2.3-9.4-5.6-12.7-10.4-2-3.2-3.1-7.2-3.1-11.3 0-8.3 4.8-15.3 10.9-19.8 6.5-4.3 14.2-6.7 22.7-6.7 12.7 0 21.8 5.9 27.7 9.9 4.4 2.9 5.7 8.8 3 13.3-3 4.3-9 5.6-13.6 2.5-5.9-3.8-11.1-6.7-17-6.7-4.6 0-8.7 1.4-11.1 3.2-2.4 1.6-3 3.2-3 4.1 0 .7 0 .9.4 1.4.2.4.7 1.1 2 1.8 2.4 1.6 7.2 3.2 13.5 4.3l.2.2h.2c6.1 1.1 11.8 2.7 17.1 5.2 5 2.2 10 5.6 13.1 10.6 2.2 3.6 3.5 7.7 3.5 11.9 0 8.8-5 16.2-11.6 20.8-6.6 4.5-14.9 7.2-24 7.2-14.4-.2-25.4-6.7-32.8-12.4-4.1-3.1-4.6-9.2-1.3-13.1"/><path id="bfpath3843" class="bfst2" d="M386.4 26.4c0 5.4-4.8 9.9-10.3 9.9h-4.6v50.1c5.7 0 10.1 4.5 10.1 10.1s-4.4 9.9-10.1 9.9c-11.2 0-20.5-9-20.5-20V36.2h-5.4c-5.7 0-10.1-4.5-10.1-9.9 0-5.6 4.4-9.9 10.1-9.9h5.4v-26c0-5.6 4.6-9.9 10.3-9.9 5.7 0 10.1 4.3 10.1 9.9v26.1h4.6c5.5 0 10.3 4.3 10.3 9.9"/><path id="bfpath3845" class="bfst2" d="M176.4 84c0 6.1-5 11.1-11.1 11.1s-11.1-5-11.1-11.1 5-11.1 11.1-11.1 11.1 4.9 11.1 11.1"/><path id="bfpath3847" class="bfst2" d="M206.4 106c0 7.2-5.9 13.1-13.1 13.1-7.2 0-13.1-5.9-13.1-13.1 0-7.2 5.9-13.1 13.1-13.1 7.2 0 13.1 5.8 13.1 13.1"/><path id="bfpath3849" class="bfst2" d="M121.4-7c0 4.5-3.6 8.1-8.1 8.1-4.4 0-8.1-3.6-8.1-8.1s3.6-8.1 8.1-8.1c4.4 0 8.1 3.6 8.1 8.1"/><path id="bfpath3851" class="bfst2" d="M98.2 128c0 3.9-3.2 7.1-7.1 7.1-3.9 0-7.1-3.2-7.1-7.1 0-3.9 3.2-7.1 7.1-7.1s7.1 3.2 7.1 7.1"/><path id="bfpath3853" class="bfst2" d="M188.4 7.6c0 4.2-3.4 7.6-7.6 7.6-4.2 0-7.6-3.4-7.6-7.6s3.4-7.6 7.6-7.6c4.2 0 7.6 3.4 7.6 7.6"/><path id="bfpath3855" class="bfst3" d="M140.4 7.6c0 5.8-4.7 10.6-10.6 10.6-5.8 0-10.6-4.7-10.6-10.6 0-5.9 4.7-10.6 10.6-10.6 5.8 0 10.6 4.7 10.6 10.6"/><path id="bfpath3857" class="bfst3" d="M127.4 30.3c0 3.9-3.2 7.1-7.1 7.1s-7.1-3.2-7.1-7.1c0-3.9 3.2-7.1 7.1-7.1 3.9 0 7.1 3.2 7.1 7.1"/><path id="bfpath3859" class="bfst3" d="M423.4 36.2c-6.6 0-12.7 2.7-17.3 7.4-4.6 4.5-7.4 11-7.4 18.2 0 6.8 2.8 13.3 7.4 17.8 4.6 4.7 10.7 7.4 17.3 7.4 6.8 0 12.7-2.7 17.3-7.4 4.6-4.5 7.4-11 7.4-17.8 0-7.2-2.8-13.7-7.4-18.2-4.7-4.7-10.5-7.4-17.3-7.4m44.8 60.6c0 5.2-4.4 9.7-10 9.7-5 0-8.9-3.4-9.8-7.7-7 4.7-15.9 7.7-25.1 7.7-24.9 0-44.8-20.5-44.8-44.8 0-24.6 19.9-45.1 44.8-45.1 9 0 17.9 2.9 24.7 7.6V-9.7c0-5.2 4.4-9.7 10.1-9.7 5.5 0 10 4.5 10 9.7v71.4l.1 35.1z"/><path id="bfpath3861" class="bfst3" d="M494.4 61.7c0 6.8 2.8 13.3 7.4 17.8 4.6 4.7 10.5 7.4 17.3 7.4 6.6 0 12.7-2.7 17.3-7.4 4.6-4.5 7.4-11 7.4-17.8 0-7.2-2.8-13.7-7.4-18.2-4.6-4.7-10.7-7.4-17.3-7.4-6.8 0-12.7 2.7-17.3 7.4-4.7 4.5-7.4 11-7.4 18.2m-20.1 0V-9.7c0-5.2 4.4-9.7 10-9.7 5.7 0 10.1 4.5 10.1 9.7v33.8c6.8-4.7 15.7-7.6 24.7-7.6 24.9 0 44.8 20.5 44.8 45.1 0 24.3-19.9 44.8-44.8 44.8-9.2 0-18.1-3.1-25.1-7.7-.9 4.3-4.8 7.7-9.8 7.7-5.5 0-10-4.5-10-9.7l.1-35z"/><path id="bfpath3863" class="bfst3" d="M236.4-11.5c0 4.2-3.4 7.6-7.6 7.6s-7.6-3.4-7.6-7.6 3.4-7.6 7.6-7.6 7.6 3.4 7.6 7.6"/><path id="bfpath3865" class="bfst3" d="M220.4 6.1c0 7.8-6.3 14.1-14.1 14.1s-14.1-6.3-14.1-14.1S198.5-8 206.3-8c7.7 0 14.1 6.3 14.1 14.1"/><path id="bfpath3867" class="bfst3" d="M149.4 67c0 5.6-4.5 10.1-10.1 10.1s-10.1-4.5-10.1-10.1 4.5-10.1 10.1-10.1c5.5 0 10.1 4.5 10.1 10.1"/><path id="bfpath3869" class="bfst3" d="M140.4 93c0 5-4.1 9.1-9.1 9.1s-9.1-4.1-9.1-9.1 4.1-9.1 9.1-9.1 9.1 4.1 9.1 9.1"/><path id="bfpath3871" class="bfst3" d="M214.4 81c0 5-4.1 9.1-9.1 9.1s-9.1-4.1-9.1-9.1 4.1-9.1 9.1-9.1 9.1 4.1 9.1 9.1"/><path id="bfpath3873" class="bfst3" d="M228.4 106c0 4.4-3.6 8.1-8.1 8.1s-8.1-3.6-8.1-8.1 3.6-8.1 8.1-8.1c4.4 0 8.1 3.6 8.1 8.1"/><path id="bfpath3875" class="bfst3" d="M100-10.5c0 2.8-2.3 5-5 5-2.8 0-5-2.3-5-5s2.3-5 5-5c2.7-.1 5 2.2 5 5"/><path id="bfpath3877" class="bfst3" d="M98.2-24.1c0 2.8-2.3 5-5 5s-5-2.3-5-5 2.3-5 5-5 5 2.2 5 5"/><path id="bfpath3879" class="bfst3" d="M114.4 89c0 3.3-2.7 6.1-6.1 6.1s-6.1-2.7-6.1-6.1c0-3.3 2.7-6.1 6.1-6.1 3.3 0 6.1 2.7 6.1 6.1"/></g></g></svg>