<?xml version="1.0" encoding="utf-8"?><svg version="1.1" id="bighost-logo" xmlns="http://www.w3.org/2000/svg" x="0" y="0" viewBox="-51.2 -51.2 614.4 267.4" xml:space="preserve" width="120" height="52.23"><style>.bist0{fill:#fff}</style><path class="bist0" d="M.2 70.8h34.9v17.5H.2zM52.6 70.8h34.9v17.5H52.6zM.2 35.9h87.3v17.5H.2zM.2 1h52.4v17.5H.2zM70 1h17.5v17.5H70z" transform="translate(0 37.437)"/><g><path class="bist0" d="M215.3 38.3c-28 0-42.5 19.8-42.5 44.3 0 24.5 14.1 44.3 42.5 44.3s42.5-19.8 42.5-44.3c.1-24.5-14.4-44.3-42.5-44.3zm21.2 44.4c0 15.7-5.3 28.5-21.2 28.5s-21.2-12.7-21.2-28.5c0-15.7 5.3-28.5 21.2-28.5 15.9-.1 21.2 12.7 21.2 28.5zM89.8 125.7V3.3S105.9 1 107.2.8c1.4-.2 3.3.8 3.3 2.8V49c3.4-3.2 7-5.8 11.1-7.7 4-2 8.7-2.9 14.2-2.9 4.7 0 8.9.8 12.5 2.4 3.6 1.6 6.7 3.8 9.1 6.7 2.4 2.9 4.3 6.3 5.5 10.3 1.3 4 1.9 8.4 1.9 13.2v54.7h-20.7V71c0-5.3-1.2-9.3-3.6-12.2-2.4-2.9-6.1-4.3-10.9-4.3-3.6 0-6.9.8-10.1 2.4-3.1 1.6-6.1 3.8-8.9 6.6v62.2H89.8zM366.2 126.9c-14.2 0-23.2-8.3-23.2-23.8V57.3h-16s3.4-11.8 3.7-12.7c.3-.9 1-1.9 2.4-2.1 1.4-.2 10-1.4 10-1.4L347 16s11.6-1.6 13.4-1.9c1.7-.3 3.3 1 3.3 2.9v24H384v16.2h-20.3v45.2c0 6.2 3.8 8.5 7.4 8.5 2.2 0 5.2-1.2 7.5-2.2 1.4-.6 3.5-.2 4.1 1.8.5 1.7 3.1 10.8 3.1 10.8-2.3 1.6-9.5 5.6-19.6 5.6zM315.6 57.5c-4-1.3-11.6-3.4-18.8-3.4-7.3 0-13.1 2.5-13.1 8.7 0 7.6 12.5 9.9 21 13 5.7 2.1 21 6.1 21 22.6 0 20-16.6 28.5-34.3 28.5-17.7 0-28.2-6.6-28.2-6.6s2.7-9.7 3.3-11.6c.5-1.7 2.5-2.3 3.8-1.8 4.6 1.8 12.8 4.2 22.1 4.2 9.4 0 14-2.9 14-9 0-8.2-12.7-10.6-21.1-13.3-5.8-1.8-21.1-6.1-21.1-24.2 0-17.8 15.6-26.2 32.4-26.2 14.2 0 21.1 3 26.3 5.6 0 0-2.9 10.1-3.3 11.6-.7 1.7-2.2 2.5-4 1.9zM81.7 41.3c0-1.9-1.6-3-3.2-2.9-6.9.8-11.9 4.1-15.1 7.1-6.3-4.9-15-7.3-24.8-7.3-19.7 0-35 9.5-35 30.2 0 11.9 5.1 20.1 13.1 24.9-6 2.8-9.9 8.8-9.9 14.7 0 9.9 7.8 12.9 7.8 12.9S1 127.5 1 140.7c0 16.9 15.6 23.8 34.6 23.8 27.4 0 46.3-11.3 46.3-32.1 0-12.8-9.8-19.9-31.1-20.7-12.7-.5-20.9-1-22.9-1.6-2.7-.9-4-3-4-5.4 0-2.6 2.2-5.1 5.5-6.8 3 .5 6.1.8 9.3.8 19.7 0 35-9.5 35-30.2 0-5-.9-9.4-2.6-13.1 2.9-1.5 6.4-2.6 10.7-2.6-.1-.1-.1-9.7-.1-11.5zm-54.1 84.5s10.3.4 20.6.9c11.6.5 15.2 3 15.2 9 0 7.3-10.1 14.5-24.2 14.5-13.4 0-20-4.6-20-12.4 0-4.5 2.4-9.4 8.4-12zm11-41.6c-9.3 0-16.6-4.9-16.6-15.7 0-10.8 7.3-15.7 16.6-15.7s16.6 4.9 16.6 15.7-7.3 15.7-16.6 15.7z" transform="translate(125.523)"/></g></svg>