<?xml version="1.0" encoding="utf-8"?><svg version="1.1" id="aejava-logo" xmlns="http://www.w3.org/2000/svg" x="0" y="0" viewBox="-50 -50 600 600" xml:space="preserve" width="120" height="120"><style>.aest0{fill:#0074bd}.aest1{fill:#ea2d2e}</style><path id="aeXMLID_16_" class="aest0" d="M207.1 264.3s-12.3 7.2 8.8 9.6c25.6 2.9 38.7 2.5 66.9-2.8 0 0 7.4 4.6 17.8 8.7-63.3 27.1-143.2-1.6-93.5-15.5z"/><path id="aeXMLID_15_" class="aest0" d="M199.4 229s-13.8 10.3 7.3 12.4c27.4 2.8 49 3.1 86.3-4.1 0 0 5.2 5.2 13.3 8.1-76.5 22.3-161.7 1.7-106.9-16.4z"/><path id="aeXMLID_14_" class="aest1" d="M264.5 168.9c15.6 18-4.1 34.1-4.1 34.1s39.6-20.4 21.4-46c-17-23.9-30-35.7 40.5-76.6 0 0-110.6 27.7-57.8 88.5z"/><path id="aeXMLID_13_" class="aest0" d="M348.2 290.5s9.1 7.5-10.1 13.4c-36.5 11.1-152 14.4-184.1.4-11.5-5 10.1-12 16.9-13.4 7.1-1.5 11.1-1.3 11.1-1.3-12.8-9-82.9 17.7-35.6 25.4 129.1 20.9 235.3-9.4 201.8-24.5z"/><path id="aeXMLID_12_" class="aest0" d="M213 192.3s-58.7 14-20.8 19c16 2.1 47.9 1.7 77.7-.8 24.3-2 48.7-6.4 48.7-6.4s-8.6 3.7-14.8 7.9c-59.7 15.7-174.9 8.4-141.7-7.7 28.1-13.5 50.9-12 50.9-12z"/><path id="aeXMLID_11_" class="aest0" d="M318.4 251.2c60.6-31.5 32.6-61.8 13-57.7-4.8 1-6.9 1.9-6.9 1.9s1.8-2.8 5.2-4c38.7-13.6 68.5 40.1-12.5 61.4 0 0 .9-.9 1.2-1.6z"/><path id="aeXMLID_10_" class="aest1" d="M281.8 14.4s33.6 33.6-31.9 85.2c-52.5 41.4-12 65.1 0 92.1-30.6-27.6-53.1-52-38-74.6 22.2-33.2 83.5-49.3 69.9-102.7z"/><path id="aeXMLID_9_" class="aest0" d="M219 336.6c58.2 3.7 147.6-2.1 149.7-29.6 0 0-4.1 10.4-48.1 18.7-49.7 9.4-110.9 8.3-147.3 2.3 0 0 7.5 6.1 45.7 8.6z"/><path class="aest1" d="M366 386h-1.8v-1h4.8v1h-1.8v5H366v-5zm9.5.2l-1.8 4.7h-.8l-1.7-4.7v4.7H370V385h1.7l1.6 4.2 1.6-4.2h1.7v5.9h-1.1v-4.7zM209.5 441.8c-5.5 4.8-11.3 7.4-16.5 7.4-7.4 0-11.4-4.5-11.4-11.6 0-7.7 4.3-13.4 21.6-13.4h6.4v17.6h-.1zm15.1 17.1V406c0-13.5-7.7-22.4-26.3-22.4-10.8 0-20.3 2.7-28.1 6.1l2.2 9.4c6.1-2.2 14-4.3 21.7-4.3 10.7 0 15.3 4.3 15.3 13.2v6.7H204c-26 0-37.7 10.1-37.7 25.3 0 13.1 7.7 20.5 22.3 20.5 9.4 0 16.3-3.9 22.9-9.5l1.2 8h11.9v-.1z"/><path id="aeXMLID_4_" class="aest1" d="M275.2 458.9h-18.9l-22.7-74H250l14.1 45.5 3.1 13.7c7.1-19.8 12.2-39.8 14.7-59.1h16c-4.2 24.2-11.9 51-22.7 73.9z"/><path class="aest1" d="M347.6 441.8c-5.5 4.8-11.3 7.4-16.5 7.4-7.4 0-11.4-4.5-11.4-11.6 0-7.7 4.3-13.4 21.6-13.4h6.4l-.1 17.6zm15.2 17.1V406c0-13.5-7.7-22.4-26.3-22.4-10.9 0-20.4 2.7-28.1 6.1l2.2 9.4c6.1-2.2 14-4.3 21.7-4.3 10.7 0 15.3 4.3 15.3 13.2v6.7h-5.4c-26 0-37.7 10.1-37.7 25.3 0 13.1 7.7 20.5 22.3 20.5 9.4 0 16.3-3.9 22.9-9.5l1.2 8h11.9v-.1z"/><path id="aeXMLID_1_" class="aest1" d="M149.8 471.4c-4.3 6.3-11.3 11.3-18.9 14.1l-7.5-8.8c5.8-3 10.8-7.8 13.1-12.3 2-4 2.8-9.1 2.8-21.4v-84.5h16.1v83.3c0 16.5-1.3 23.2-5.6 29.6z"/></svg>