<?xml version="1.0" encoding="utf-8"?><svg width="120" height="33.67" fill="none" xmlns="http://www.w3.org/2000/svg" viewBox="-30 -30 360 101"><g clip-path="url(#agclip0)"><path d="M19.113 0v32.745l-14.1 8.188L5 8.181 19.113 0z" fill="#F96B13"/><path d="M33.218 24.55v15.87l-14.106.008v-7.683l14.106-8.194z" fill="#F96B13"/><path d="M47.344 3.555h8.31v30.322h14.93v6.55h-23.24V3.556zM73.156 30.835V13.46h7.385v16.343c0 3.661 1.49 5.412 4.667 5.412 3.13 0 5.59-1.957 5.59-5.931V13.46h7.385v26.968h-7.385V36.2c-1.383 2.736-4.101 4.793-8.515 4.793-5.232 0-9.127-3.095-9.127-10.158zM101.574 27.28v-.413c0-8.714 6.208-14.026 13.853-14.026 6.209 0 11.952 2.736 12.623 10.465h-7.026c-.512-3.142-2.413-4.587-5.438-4.587-3.848 0-6.414 2.89-6.414 8.042v.413c0 5.412 2.413 8.2 6.567 8.2 2.978 0 5.385-1.75 5.744-5.205h6.72C127.791 36.566 123.178 41 115.374 41c-7.844-.007-13.8-4.906-13.8-13.72zM130.975 5.725c0-2.323 1.848-4.074 4.208-4.074 2.413 0 4.261 1.75 4.261 4.074 0 2.323-1.848 4.074-4.261 4.074-2.36 0-4.208-1.757-4.208-4.074zm.565 7.735h7.385v26.968h-7.385V13.46zM142.621 27.327v-.413c0-8.867 5.079-14.08 11.799-14.08 4.308 0 6.98 1.911 8.469 4.64V1.238h7.386v39.19h-7.386V35.94c-1.382 2.736-4.666 5.052-8.621 5.052-6.515 0-11.647-4.693-11.647-13.666zm20.468-.253v-.413c0-5.366-2.36-8.095-6.415-8.095-4.155 0-6.468 2.836-6.468 8.201v.413c0 5.366 2.566 7.995 6.262 7.995 3.902-.006 6.621-2.636 6.621-8.101zM173.711 27.28v-.413c0-8.714 6.209-14.026 13.854-14.026 6.208 0 11.952 2.736 12.623 10.465h-7.026c-.512-3.142-2.413-4.587-5.438-4.587-3.849 0-6.415 2.89-6.415 8.042v.413c0 5.412 2.413 8.2 6.568 8.2 2.978 0 5.384-1.75 5.743-5.205h6.721C199.929 36.566 195.315 41 187.511 41c-7.85-.007-13.8-4.906-13.8-13.72zM203.465 1.238h7.439v16.503c1.336-2.683 4.261-4.9 8.721-4.9 5.285 0 9.027 3.196 9.027 10.418v17.169h-7.438v-16.09c0-3.662-1.436-5.412-4.72-5.412-3.184 0-5.59 1.957-5.59 5.931v15.57h-7.439V1.239zM231.737 32.952c0-6.291 5.743-8.66 13.953-8.66h3.024v-1.086c0-3.195-.977-4.953-4.361-4.953-2.924 0-4.261 1.498-4.566 3.815h-7.027c.459-6.398 5.491-9.233 12.059-9.233 6.567 0 11.234 2.682 11.234 10.005v17.58h-7.233v-3.248c-1.542 2.164-3.902 3.815-8.109 3.815-4.866.006-8.974-2.364-8.974-8.035zm16.984-1.964v-2.27h-2.872c-4.307 0-6.827.925-6.827 3.814 0 1.958 1.183 3.249 3.902 3.249 3.284.007 5.797-1.797 5.797-4.793zM260.879 13.46h7.438v5.16c1.695-3.609 4.308-5.52 8.669-5.573v6.964c-5.491-.054-8.669 1.75-8.669 6.91v13.507h-7.438V13.46zM281.812 32.432V18.766h-3.437v-5.312h3.437V7.629h7.385v5.825h5.643v5.312h-5.643V31.76c0 2.164 1.077 3.195 2.978 3.195 1.13 0 1.948-.153 2.825-.512v5.778c-1.024.36-2.513.72-4.514.72-5.65 0-8.674-2.89-8.674-8.509z" fill="#282C33"/></g><defs><clipPath id="agclip0"><path fill="#fff" d="M0 0h300v41H0z"/></clipPath></defs></svg>