<?xml version="1.0" encoding="utf-8"?><svg version="1.1" id="bpLayer_1" xmlns="http://www.w3.org/2000/svg" x="0" y="0" viewBox="-51.2 -51.2 550.4 614.4" xml:space="preserve" width="107.5" height="120"><style>.bpst0{fill:#b10580}</style><path class="bpst0" d="M16 132h416c8.8 0 16-7.2 16-16V76c0-8.8-7.2-16-16-16H16C7.2 60 0 67.2 0 76v40c0 8.8 7.2 16 16 16zm0 160h416c8.8 0 16-7.2 16-16v-40c0-8.8-7.2-16-16-16H16c-8.8 0-16 7.2-16 16v40c0 8.8 7.2 16 16 16zm0 160h416c8.8 0 16-7.2 16-16v-40c0-8.8-7.2-16-16-16H16c-8.8 0-16 7.2-16 16v40c0 8.8 7.2 16 16 16z"/></svg>