<?xml version="1.0" encoding="utf-8"?><svg version="1.1" id="aiappel" xmlns="http://www.w3.org/2000/svg" x="0" y="0" viewBox="-233.28 -233.28 2799.36 1218.76" xml:space="preserve" width="120" height="52.24"><style>.aist0{fill:#f54029}.aist1{fill:#fff}</style><g id="aiLayer_x0020_1"><g id="ai_152392584"><path id="ai_152391984" class="aist0" d="M1906.2 460.3l77.9-325h45.2l-78.7 325h-44.4zm143-40.9v-60.7l150.5-59.2-150.5-58.5v-60.2l215.7 93.2v51.4l-215.7 94z"/><path id="ai_152389104" class="aist1" d="M885 178.6h64.1l54.5 161.7 53.2-161.7h62.4l-80.4 219.1-14.4 39.7c-5.3 13.2-10.3 23.4-15.1 30.4-4.8 7-10.3 12.7-16.5 17.1-6.2 4.3-13.8 7.8-22.9 10.2-9.1 2.4-19.3 3.7-30.8 3.7-11.6 0-22.9-1.2-34.1-3.7l-5.3-47.2c9.4 1.9 17.9 2.8 25.5 2.8 14 0 24.4-4.1 31.1-12.3 6.7-8.2 11.9-18.7 15.4-31.4L885 178.6zm267.2 242.7l68.8 8.3c1.2 8 3.8 13.5 7.9 16.5 5.7 4.3 14.8 6.4 27 6.4 15.7 0 27.5-2.3 35.4-7.1 5.3-3.1 9.3-8.2 12-15.2 1.8-5 2.8-14.2 2.8-27.7v-33.2c-18 24.6-40.8 36.9-68.2 36.9-30.6 0-54.8-13-72.7-38.8-14-20.5-21-45.9-21-76.3 0-38.2 9.2-67.3 27.6-87.5 18.4-20.1 41.2-30.2 68.5-30.2 28.1 0 51.4 12.4 69.7 37.1v-31.9h56.4v204.3c0 26.9-2.2 46.9-6.7 60.2-4.4 13.3-10.6 23.7-18.6 31.3-8.1 7.5-18.7 13.5-32.1 17.8-13.4 4.2-30.3 6.4-50.7 6.4-38.6 0-66-6.7-82.1-19.8-16.2-13.2-24.2-30-24.2-50.3 0-1.9.1-4.4.2-7.2zm53.8-133.6c0 24.2 4.7 41.9 14 53.1 9.4 11.2 20.9 16.8 34.6 16.8 14.7 0 27.2-5.8 37.3-17.3 10.1-11.5 15.2-28.5 15.2-51.2 0-23.6-4.9-41.1-14.6-52.5-9.7-11.5-22-17.2-36.8-17.2-14.5 0-26.3 5.6-35.7 16.8-9.3 11.4-14 28.5-14 51.5zm351.8 46.1l60.1 10c-7.8 22-19.9 38.8-36.6 50.3-16.6 11.6-37.5 17.3-62.5 17.3-39.6 0-68.9-12.9-87.9-38.8-15-20.7-22.5-46.9-22.5-78.5 0-37.8 9.9-67.3 29.6-88.7 19.7-21.4 44.6-32.1 74.8-32.1 33.9 0 60.6 11.2 80.2 33.6 19.5 22.4 28.9 56.6 28.1 102.8h-151c.4 17.9 5.3 31.8 14.6 41.6 9.3 10 20.9 14.9 34.8 14.9 9.4 0 17.3-2.6 23.8-7.7 6.4-5 11.3-13.2 14.5-24.7zm3.5-60.9c-.4-17.5-4.9-30.7-13.5-39.8-8.6-9.1-19-13.6-31.3-13.6-13.2 0-24 4.8-32.6 14.4-8.6 9.5-12.8 22.5-12.7 39h90.1zm316.1 133.4h-60.2V290.1c0-24.6-1.3-40.5-3.9-47.7-2.6-7.2-6.8-12.8-12.6-16.8s-12.7-6-20.9-6c-10.5 0-19.8 2.9-28.1 8.6-8.3 5.8-14 13.3-17.1 22.8-3.1 9.4-4.6 26.9-4.6 52.3v103.1h-60.2V178.6h55.9V212c19.9-25.8 44.9-38.6 75.1-38.6 13.2 0 25.5 2.4 36.4 7.2 11 4.8 19.3 10.9 25 18.4 5.6 7.5 9.6 15.9 11.8 25.3 2.3 9.4 3.4 22.9 3.4 40.5v141.5z"/><path id="ai_152390160" class="aist1" d="M2237.3 121c15.2 0 27.6 12.4 27.6 27.6 0 15.2-12.4 27.6-27.6 27.6-15.2 0-27.6-12.4-27.6-27.6 0-15.3 12.4-27.6 27.6-27.6z"/><path id="ai_152389536" class="aist1" d="M2252.7 165.8h-4.9l-3.2-9.2c-.6-1.6-1.5-3-2.9-4-1.3-1-2.9-1.6-4.7-1.6h-8.5v14.8h-4.6v-34.5h15.3c2.7 0 4.8.3 6.5.8 1.7.5 3.1 1.6 4.1 3.3 1.1 1.7 1.6 3.5 1.6 5.6 0 2.4-.7 4.4-2.1 6-1.4 1.6-3.3 2.6-5.7 3.1v.1c2.4.8 4.2 2.8 5.5 6.2l3.6 9.4zm-24.2-18.9h10.2c2.8 0 4.9-.4 6.2-1.3 1.3-.9 1.9-2.4 1.9-4.6 0-3.9-2.5-5.9-7.4-5.9h-10.9v11.8z"/><path id="ai_152391096" class="aist1" d="M315.4 296.3c0-20 5-39.4 14.8-58.1 9.9-18.7 23.9-33 41.9-42.8 18.1-9.9 38.3-14.9 60.6-14.9 34.4 0 62.6 11.2 84.7 33.6 22 22.4 33 50.6 33 84.8 0 34.4-11.1 62.9-33.3 85.6-22.2 22.7-50.2 34-83.9 34-20.9 0-40.8-4.7-59.7-14.1-19-9.4-33.4-23.3-43.3-41.5-9.8-18.2-14.8-40.4-14.8-66.6zm61.8 3.2c0 22.6 5.3 39.9 16.1 51.9 10.7 12 23.9 18 39.7 18 15.7 0 28.9-6 39.5-18 10.7-12 16-29.4 16-52.3 0-22.2-5.3-39.4-16-51.4-10.6-12-23.8-18-39.5-18s-29 6-39.7 18c-10.8 11.9-16.1 29.3-16.1 51.8z"/><path id="ai_152388912" class="aist0" d="M287.6 419.3L72.1 325.5v-51.9l215.5-93.2v61.1L137.3 299l150.3 59.6z"/><path id="ai_152392368" class="aist0" d="M877.4 452.2L800 504.4c-25.1-37.7-47.3-70.9-66.6-99.6-19.3-28.5-32.7-48.5-40.2-59.6-45.1 69.3-80.3 121.1-105.6 155.4-25.2 34.4-47 60.4-65.4 78.2 0-3.1 12.4-34 37.4-92.6 24.8-58.5 55.5-128.3 91.9-209.5l-124.4-195 65.3-14.5c13.2 25.6 26.6 52.2 40.1 79.9 13.5 27.7 29.4 61.1 47.7 100 9.8-15.6 26.8-43.8 51-84.6 24.1-40.9 42.9-69.7 56.3-86.6-17.7 61-31 106.6-40.1 136.9-9 30.4-17.5 58.5-25.8 84.5l155.8 154.9z"/><path id="ai_152389896" class="aist1" d="M1396.3 637l40.6-61.8-36.7-56.7h27.9l23.8 38.1 23.3-38.1h27.7L1466 576l40.5 61h-28.8l-26.3-41-26.3 41z"/><path id="ai_1523898961" class="aist1" d="M1518.5 637V518.5h35.8l21.5 80.8 21.3-80.8h35.9V637h-22.2v-93.3l-23.6 93.3h-23l-23.5-93.3V637z"/><path id="ai_15238989612" class="aist1" d="M1657.4 637V519.5h23.9V617h59.5v20z"/><path id="ai_152389896123" class="aist1" d="M1800.9 637V518.5h87.9v20h-63.9v26.3h59.5v20h-59.5V617h66.2v20z"/><path id="ai_1523898961234" class="aist1" d="M1989.9 637h-21.1v-12.6c-3.5 4.9-7.6 8.6-12.4 11-4.8 2.4-9.6 3.6-14.4 3.6-9.9 0-18.3-4-25.4-11.9-7-7.9-10.5-19-10.5-33.3 0-14.6 3.4-25.6 10.3-33.2 6.8-7.6 15.5-11.4 26-11.4 9.6 0 17.9 4 24.9 12v-42.7h22.7l-.1 118.5zm-60.6-44.8c0 9.2 1.3 15.8 3.8 19.9 3.6 5.9 8.8 8.9 15.3 8.9 5.2 0 9.7-2.2 13.4-6.7 3.6-4.4 5.5-11.1 5.5-19.9 0-9.9-1.8-17-5.3-21.3-3.6-4.3-8.1-6.5-13.7-6.5-5.4 0-9.9 2.2-13.5 6.4-3.7 4.3-5.5 10.7-5.5 19.2z"/><path id="ai_15238989612345" class="aist1" d="M2012.3 539.5v-21h22.7v21h-22.7zm0 97.5v-85.8h22.7V637h-22.7z"/><path id="ai_152389896123456" class="aist1" d="M2097.7 551.2v18.1h-15.5v34.6c0 7 .1 11.1.4 12.3.3 1.2 1 2.1 2 2.9 1 .7 2.3 1.1 3.8 1.1 2.1 0 5.2-.7 9.2-2.2l1.9 17.6c-5.3 2.3-11.3 3.4-18 3.4-4.1 0-7.8-.7-11.1-2-3.3-1.4-5.7-3.2-7.2-5.4s-2.6-5.1-3.2-8.9c-.5-2.6-.7-8-.7-16v-37.4H2049v-18.1h10.4v-17.1l22.8-13.2v30.3h15.5z"/><path id="ai_1523898961234567" class="aist1" d="M2108.2 592.9c0-7.5 1.9-14.8 5.6-21.9 3.7-7 9-12.4 15.8-16.1 6.8-3.7 14.4-5.6 22.9-5.6 13 0 23.6 4.2 31.9 12.7 8.3 8.4 12.4 19.1 12.4 32 0 13-4.2 23.7-12.6 32.3-8.4 8.6-18.9 12.8-31.7 12.8-7.9 0-15.4-1.8-22.5-5.3-7.1-3.6-12.6-8.8-16.3-15.6-3.6-7.1-5.5-15.5-5.5-25.3zm23.3 1.2c0 8.5 2 15 6.1 19.6 4 4.5 9 6.8 15 6.8 5.9 0 10.9-2.3 14.9-6.8s6-11.1 6-19.7c0-8.4-2-14.9-6-19.4-4-4.5-9-6.8-14.9-6.8s-10.9 2.3-15 6.8c-4.1 4.4-6.1 11-6.1 19.5z"/><path id="ai_15238989612345678" class="aist1" d="M2236.4 637h-22.7v-85.8h21.1v12.2c3.6-5.8 6.9-9.6 9.7-11.4 2.9-1.8 6.2-2.8 9.8-2.8 5.2 0 10.2 1.4 15 4.3l-7 19.8c-3.8-2.5-7.4-3.7-10.7-3.7-3.2 0-5.9.9-8.1 2.6-2.2 1.7-3.9 4.9-5.2 9.5-1.3 4.6-1.9 14.2-1.9 28.8V637z"/></g></g></svg>