<?xml version="1.0" encoding="utf-8"?><svg version="1.1" id="bspdf-file-icon" xmlns="http://www.w3.org/2000/svg" x="0" y="0" viewBox="-120 -120 1440 1440" xml:space="preserve" width="120" height="120"><style>.bsst0{fill:#ff2116}.bsst1{fill:#f5f5f5}.bsst2{fill:#2c2c2c}</style><g id="bslayer1" transform="translate(36.076 -93.732)"><g id="bsg899" transform="matrix(1.4843 0 0 1.4843 17.472 -90.244)"><g id="bsg876"><path id="bspath890" class="bsst0" d="M153.8 175.3c-40.1 0-72.8 32.7-72.8 72.8V807c0 40.1 32.7 72.8 72.8 72.8h427.5c40.1 0 72.8-32.7 72.8-72.8V347.3s1.2-13.5-4.7-26.5C643.9 308.6 635 300 635 300s0-.1-.1-.1l-106.1-104-.2-.2s-9.1-8.6-22.5-14.4c-15.8-6.7-32.1-6-32.1-6h.3-320.5z"/><path id="bsrect2684" class="bsst1" d="M153.8 199.1h320.8s12.8.1 22.2 4.1c9 3.9 15.4 9.7 15.5 9.8v.1L618 316.9s6.4 6.7 9.4 13.7c2.5 5.6 2.6 15.8 2.6 15.8V807c0 27.3-21.6 48.9-48.9 48.9H153.8c-27.3 0-48.9-21.6-48.9-48.9V248c0-27.3 21.6-48.9 48.9-48.9z"/><path id="bspath2697" class="bsst0" d="M224.1 594.7c-16.5-16.5 1.3-39.1 49.7-63.1l30.4-15.1 11.9-25.9c6.5-14.2 16.2-37.5 21.6-51.7l9.7-25.7-6.7-19.1c-8.3-23.4-11.2-58.7-5.9-71.4 7.1-17.2 30.4-15.4 39.6 3 7.2 14.4 6.5 40.4-2.1 73.2l-7 26.9 6.1 10.4c3.4 5.8 13.3 19.4 22 30.3l16.4 20.3 20.3-2.7c64.7-8.5 86.8 5.9 86.8 26.5 0 26-50.8 28.1-93.5-1.9-9.6-6.7-16.2-13.4-16.2-13.4s-26.7 5.4-39.9 9c-13.6 3.7-20.3 5.9-40.2 12.7 0 0-7 10.2-11.5 17.5-16.9 27.4-36.7 50.1-50.8 58.4-15.8 9.6-32.4 10.2-40.7 1.8zm25.8-9.2c9.3-5.8 28-27.8 40.9-48.4l5.2-8.3-23.8 12c-36.9 18.5-53.7 36-45 46.6 5 6 10.8 5.4 22.7-1.9zm239.6-67.3c9-6.3 7.7-19.1-2.5-24.2-7.9-4-14.4-4.9-35-4.5-12.7.9-33.1 3.4-36.6 4.2 0 0 11.2 7.7 16.2 10.6 6.7 3.8 22.8 10.8 34.6 14.4 11.5 3.6 18.2 3.2 23.3-.5zm-96.3-40c-5.5-5.8-14.8-17.7-20.7-26.7-7.7-10.1-11.6-17.3-11.6-17.3s-5.7 18.2-10.3 29.1L336.2 499l-4.2 8.1s22.2-7.3 33.6-10.3c12-3.1 36.4-7.9 36.4-7.9l-8.8-10.7zm-31.1-124.5c1.4-11.7 2-23.4-1.8-29.3-10.4-11.4-23-1.9-20.9 25.2.7 9.1 3 24.7 6 34.4l5.5 17.5 3.9-13.1c2.2-7.3 5.5-22.9 7.3-34.7z"/><g id="bsg858"><path id="bspath845" class="bsst2" d="M252 670.9h26.7c8.5 0 15.5.8 20.8 2.4 5.3 1.6 9.8 5.1 13.4 10.7 3.6 5.5 5.5 12.1 5.5 19.8 0 7.1-1.4 13.2-4.4 18.4-3 5.1-6.9 8.8-12 11.1-4.9 2.2-12.6 3.4-22.9 3.4h-9.3v42.1H252V670.9zm18 13.8v37.6h8.8c7.9 0 13.3-1.4 16.4-4.4 3.1-3 4.6-7.7 4.6-14.4 0-4.9-1-9-3-12-2-3.1-4.2-5-6.7-5.7-2.3-.7-6.1-1.1-11.3-1.1H270z"/><path id="bspath847" class="bsst2" d="M332.1 670.9h24.3c11.8 0 21.1 2.1 28.2 6.2s12.4 10.3 15.9 18.5c3.6 8.2 5.5 17.4 5.5 27.4 0 10.5-1.6 20-4.9 28.2S393 766 386.3 771c-6.7 5-16.1 7.6-28.4 7.6h-25.6V670.9h-.2zm17.9 14.3v79.3h7.5c10.3 0 17.9-3.6 22.6-10.7 4.7-7.2 7-16.8 7-28.8 0-26.5-9.9-39.7-29.6-39.7l-7.5-.1z"/><path id="bspath849" class="bsst2" d="M423 670.9h60v14.3h-42v32.2h33.7v14.3H441v47h-17.8l-.2-107.8z"/></g></g></g></g></svg>