<?xml version="1.0" encoding="utf-8"?><svg version="1.1" id="akrelaxNG-logo" xmlns="http://www.w3.org/2000/svg" x="0" y="0" viewBox="-50 -50 600 234.2" xml:space="preserve" width="120" height="46.84"><style>.akst0{fill:#6c8cb8}</style><path class="akst0" d="M23.9 108.3V25.8h36.6c7.4 0 12.9.7 16.8 2.2 3.8 1.5 6.9 4.1 9.2 7.9s3.4 7.9 3.4 12.4c0 5.9-1.9 10.8-5.7 14.8s-9.6 6.6-17.6 7.7c2.9 1.4 5.1 2.8 6.6 4.1 3.2 2.9 6.2 6.6 9.1 11l14.4 22.5H82.9l-11-17.3c-3.2-5-5.8-8.7-7.9-11.4-2.1-2.6-3.9-4.5-5.5-5.5s-3.3-1.8-5-2.2c-1.2-.3-3.3-.4-6.1-.4H34.8v36.6l-10.9.1zm10.9-46.1h23.5c5 0 8.9-.5 11.7-1.5s5-2.7 6.4-5c1.5-2.3 2.2-4.7 2.2-7.4 0-3.9-1.4-7.1-4.3-9.6-2.8-2.5-7.3-3.8-13.4-3.8H34.8v27.3zM139.9 89l10.5 1.3c-1.7 6.1-4.7 10.9-9.2 14.2-4.5 3.4-10.2 5.1-17.1 5.1-8.7 0-15.7-2.7-20.8-8.1s-7.7-12.9-7.7-22.7c0-10.1 2.6-17.9 7.8-23.4 5.2-5.6 11.9-8.3 20.2-8.3 8 0 14.5 2.7 19.6 8.2 5.1 5.4 7.6 13.1 7.6 23 0 .6 0 1.5-.1 2.7H106c.4 6.6 2.2 11.6 5.6 15.1 3.3 3.5 7.5 5.2 12.5 5.2 3.7 0 6.9-1 9.5-2.9 2.6-2 4.7-5.1 6.3-9.4zm-33.3-16.3H140c-.5-5-1.7-8.8-3.8-11.3-3.2-3.9-7.4-5.9-12.6-5.9-4.7 0-8.6 1.6-11.7 4.7-3.2 3.1-5 7.2-5.3 12.5zM158.1 108.3V25.8h10.1v82.5h-10.1zM217.7 100.9c-3.8 3.2-7.4 5.4-10.8 6.8-3.5 1.3-7.2 2-11.2 2-6.6 0-11.6-1.6-15.1-4.8s-5.3-7.3-5.3-12.3c0-2.9.7-5.6 2-8s3.1-4.4 5.2-5.8c2.2-1.5 4.6-2.6 7.3-3.3 2-.5 5-1 9-1.5 8.2-1 14.2-2.1 18.1-3.5 0-1.4.1-2.3.1-2.6 0-4.1-1-7-2.9-8.7-2.6-2.3-6.4-3.4-11.5-3.4-4.8 0-8.3.8-10.6 2.5s-4 4.6-5 8.9l-9.9-1.4c.9-4.2 2.4-7.7 4.4-10.3 2.1-2.6 5-4.6 8.9-6s8.4-2.1 13.6-2.1c5.1 0 9.2.6 12.4 1.8s5.5 2.7 7 4.5 2.6 4.1 3.2 6.9c.3 1.7.5 4.8.5 9.3v13.5c0 9.4.2 15.4.6 17.9s1.3 4.9 2.6 7.2h-10.6c-1-2.3-1.7-4.8-2-7.6zm-.9-22.6c-3.7 1.5-9.2 2.8-16.5 3.8-4.2.6-7.1 1.3-8.8 2-1.7.8-3.1 1.8-4 3.3-.9 1.4-1.4 3-1.4 4.8 0 2.7 1 5 3.1 6.8 2 1.8 5 2.7 9 2.7 3.9 0 7.4-.9 10.4-2.6s5.3-4 6.7-7c1.1-2.3 1.6-5.7 1.6-10.1v-3.7h-.1zM233 108.3l21.8-31.1-20.2-28.7h12.7l9.2 14c1.7 2.7 3.1 4.9 4.2 6.7 1.7-2.5 3.2-4.7 4.6-6.6l10.1-14.1h12.1l-20.7 28.1 22.2 31.6h-12.4l-12.3-18.6-3.3-5-15.7 23.6-12.3.1zM325.8 108.3V25.8H342l33.8 55.1V25.8h15.5v82.5h-16.7l-33.3-53.8v53.8h-15.5zM442.1 78V64H478v32.9c-3.5 3.4-8.5 6.4-15.2 8.9-6.6 2.6-13.3 3.9-20.1 3.9-8.6 0-16.2-1.8-22.6-5.4s-11.2-8.8-14.5-15.5c-3.2-6.7-4.8-14.1-4.8-22 0-8.6 1.8-16.2 5.4-22.9s8.9-11.8 15.8-15.4c5.3-2.7 11.9-4.1 19.8-4.1 10.2 0 18.2 2.1 24 6.4s9.5 10.2 11.1 17.8l-16.5 3.1c-1.2-4.1-3.3-7.3-6.6-9.6-3.2-2.3-7.2-3.5-12-3.5-7.3 0-13.1 2.3-17.4 6.9S418 57 418 66c0 9.8 2.2 17.1 6.5 22 4.4 4.9 10.1 7.3 17.1 7.3 3.5 0 7-.7 10.5-2.1s6.5-3 9-5V78h-19z"/></svg>