<?xml version="1.0" encoding="utf-8"?><svg version="1.1" id="alrocksDB-logo" xmlns="http://www.w3.org/2000/svg" x="0" y="0" viewBox="-79.67 -79.67 766.04 956.04" xml:space="preserve" width="96.15" height="120"><style>.alst0{fill:#0f2647}.alst1{fill:#ffbe00}.alst2{fill:#fff}</style><path class="alst0" d="M569 98.4c0-5.2-1.1-10.2-3.1-14.6-4.8-13.3-17.5-22.9-32.3-22.9H73.1c-14.9 0-27.7 9.6-32.3 22.9-2 4.5-3.1 9.5-3.1 14.7v457.9c0 4.9 1 9.5 2.8 13.8 4.4 13.8 17.4 23.9 32.7 23.9h460.5c15.2 0 28.1-10.1 32.7-23.8 1.8-4.3 2.8-9.1 2.8-14V98.4z"/><path class="alst1" d="M374.7 441.6l-59.2 1.4-22.4 51.3-58.1 15.2-36.4 33.2h293.1c15.2 0 27.6-12.4 27.6-27.6V369.5l-104 25.9-40.6 46.2zm-213.5 4.3l-49.3 42.3c-.4-3-1.7-6.1-3.8-8.6l-25.9 21.8c5.5 6.5 14.7 7.8 21.8 3.4l48.2-21.8 9-37.1zm286.2-148.7l6 15.7c9.2-2.3 23.5-12.5 33.4-20.4-.3 2.8-.2 5.5.8 8.2l31.8-11.7c-3.3-8.7-13-13.2-21.8-10-.2.1-.6.2-.8.4l.1-.1-49.5 17.9zm54.8 26.6h-.2l-58.2-5-13.3-34.9v-37c2.7 1.4 5.5 2.3 8.7 2.3 9.6 0 17.5-7.4 18.4-16.7l14-9.2-.7-18.7c-.1-1.9-1.6-3.4-3.4-3.4L450 201c-3.7-5.1-10.4-7.3-16.4-4.5l-38.2 17.9c.1.1.1.2.1.3 1.3 2.7 3.2 4.7 5.5 6.1-46.6 24-66.3 56.6-66.3 56.6l-178 95.9c-10.4 5.5-23.5 1.7-29.1-8.7-5.5-10.4-1.7-23.5 8.7-29.1l50.5-27.1c12.8-6.9 20.3-19.7 21.3-33.1l-30.2 16.3-50.5 27.1c-19.7 10.6-27.1 35.3-16.6 55 7.3 13.6 21.4 21.4 35.9 21.4 6.5 0 13.1-1.6 19.2-4.9l22.8-12.3c-1.7 9-.9 18.6 2.7 27.7 1.2 3.1 2 5 2 5 8.1 17.5-2.5 31.2-16.5 31.2h-4.4l-16.1 69.8c-2.1-2.2-4.9-3.9-8.1-4.7l-8 32.9c8.1 1.9 16.1-2.2 19.3-9.5l36.3-65.1c45.9-4.4 70.1-35.5 69-79.4 47.6 2.9 110.9-27 139.2-67.9 21.4 27.1 61.9 23.4 79.8 16.5l3.4-1.2c-1.3 2.3-2 5.1-2 8.1l33.9-.3c-.2-9.9-7.7-17.3-17-17.2zm-315.6-61.7c1.7 3.1 2.4 6.4 2.5 9.7l17.8-9.6c-.8-3.1-1.9-6.2-3.5-9.2l-.9-1.8-16.8 9.1.9 1.8zm-6.5-12l16.8-9.1-2.2-4c-2.4-4.7-8.3-6.4-13-4-4.7 2.4-6.4 8.3-4 13l2.4 4.1z"/><path class="alst0" d="M438.3 205.4c-3 0-5.4 2.4-5.4 5.5 0 3 2.4 5.5 5.4 5.5 3 0 5.5-2.4 5.5-5.5 0-3-2.5-5.5-5.5-5.5zm-31.9 40.9c-1.3.8-2.1 1.8-2.1 1.8s2.3 2.7 5.1 2.7 5.1-2.7 5.1-2.7-.8-1-2.1-1.8c2-.8 3.4-2.1 3.4-2.1s-1.3-1.3-3.4-2.1c1.3-.8 2.1-1.8 2.1-1.8s-2.3-2.7-5.1-2.7-5.1 2.7-5.1 2.7.8 1 2.1 1.8c-2 .8-3.4 2.1-3.4 2.1s1.4 1.4 3.4 2.1zm-18.5 6.8s-2.3-2.7-5.1-2.7c-2.9 0-5.1 2.7-5.1 2.7s.8 1 2.1 1.8c-2 .8-3.4 2.1-3.4 2.1s1.3 1.3 3.4 2.1c-1.3.8-2.1 1.8-2.1 1.8s2.3 2.7 5.1 2.7c2.9 0 5.1-2.7 5.1-2.7s-.8-1-2.1-1.8c2-.8 3.4-2.1 3.4-2.1s-1.3-1.3-3.4-2.1c1.3-1 2.1-1.8 2.1-1.8zm24.4 25.9s-.8-1-2.1-1.8c2-.8 3.4-2.1 3.4-2.1s-1.3-1.3-3.4-2.1c1.3-.8 2.1-1.8 2.1-1.8s-2.3-2.7-5.1-2.7-5.1 2.7-5.1 2.7.8 1 2.1 1.8c-2 .8-3.4 2.1-3.4 2.1s1.3 1.3 3.4 2.1c-1.3.8-2.1 1.8-2.1 1.8s2.3 2.7 5.1 2.7 5.1-2.7 5.1-2.7zm-27.7 9.2c1.3-.8 2.1-1.8 2.1-1.8s-2.3-2.7-5.1-2.7-5.1 2.7-5.1 2.7.8 1 2.1 1.8c-2 .8-3.4 2.1-3.4 2.1s1.3 1.3 3.4 2.1c-1.3.8-2.1 1.8-2.1 1.8s2.3 2.7 5.1 2.7 5.1-2.7 5.1-2.7-.8-1-2.1-1.8c2-.8 3.4-2.1 3.4-2.1s-1.3-1.3-3.4-2.1zm-26.3-8c1.3-.8 2.1-1.8 2.1-1.8s-2.3-2.7-5.1-2.7c-2.9 0-5.1 2.7-5.1 2.7s.8 1 2.1 1.8c-2 .8-3.4 2.1-3.4 2.1s1.3 1.3 3.4 2.1c-1.3.8-2.1 1.8-2.1 1.8s2.3 2.7 5.1 2.7c2.9 0 5.1-2.7 5.1-2.7s-.8-1-2.1-1.8c2-.8 3.4-2.1 3.4-2.1s-1.3-1.2-3.4-2.1zm-10 31.1s-.8-1-2.1-1.8c2-.8 3.4-2.1 3.4-2.1s-1.3-1.3-3.4-2.1c1.3-.8 2.1-1.8 2.1-1.8s-2.3-2.7-5.1-2.7c-2.9 0-5.1 2.7-5.1 2.7s.8 1 2.1 1.8c-2 .8-3.4 2.1-3.4 2.1s1.3 1.3 3.4 2.1c-1.3.8-2.1 1.8-2.1 1.8s2.3 2.7 5.1 2.7 5.1-2.7 5.1-2.7zm-45 4.5s2.3 2.7 5.1 2.7 5.1-2.7 5.1-2.7-.8-1-2.1-1.8c2-.8 3.4-2.1 3.4-2.1s-1.3-1.3-3.4-2.1c1.3-.8 2.1-1.8 2.1-1.8s-2.3-2.7-5.1-2.7-5.1 2.7-5.1 2.7.8 1 2.1 1.8c-2 .8-3.4 2.1-3.4 2.1s1.3 1.3 3.4 2.1c-1.3 1-2.1 1.8-2.1 1.8zm24.7 15.9c1.3-.8 2.1-1.8 2.1-1.8s-2.3-2.7-5.1-2.7c-2.9 0-5.1 2.7-5.1 2.7s.8 1 2.1 1.8c-2 .8-3.4 2.1-3.4 2.1s1.3 1.3 3.4 2.1c-1.3.8-2.1 1.8-2.1 1.8s2.3 2.7 5.1 2.7c2.9 0 5.1-2.7 5.1-2.7s-.8-1-2.1-1.8c2-.8 3.4-2.1 3.4-2.1s-1.4-1.5-3.4-2.1zm27.1 5.8c1.3-.8 2.1-1.8 2.1-1.8s-2.3-2.7-5.1-2.7c-2.9 0-5.1 2.7-5.1 2.7s.8 1 2.1 1.8c-2 .8-3.4 2.1-3.4 2.1s1.3 1.3 3.4 2.1c-1.3.8-2.1 1.8-2.1 1.8s2.3 2.7 5.1 2.7c2.9 0 5.1-2.7 5.1-2.7s-.8-1-2.1-1.8c2-.8 3.4-2.1 3.4-2.1s-1.4-1.2-3.4-2.1zm22.2-21.3c1.3-.8 2.1-1.8 2.1-1.8s-2.3-2.7-5.1-2.7c-2.9 0-5.1 2.7-5.1 2.7s.8 1 2.1 1.8c-2 .8-3.4 2.1-3.4 2.1s1.3 1.3 3.4 2.1c-1.3.8-2.1 1.8-2.1 1.8s2.3 2.7 5.1 2.7c2.9 0 5.1-2.7 5.1-2.7s-.8-1-2.1-1.8c2-.8 3.4-2.1 3.4-2.1s-1.4-1.4-3.4-2.1zm39.6-17.9c1.3-.8 2.1-1.8 2.1-1.8s-2.3-2.7-5.1-2.7-5.1 2.7-5.1 2.7.8 1 2.1 1.8c-2 .8-3.4 2.1-3.4 2.1s1.3 1.3 3.4 2.1c-1.3.8-2.1 1.8-2.1 1.8s2.3 2.7 5.1 2.7 5.1-2.7 5.1-2.7-.8-1-2.1-1.8c2-.8 3.4-2.1 3.4-2.1s-1.4-1.4-3.4-2.1zM286.7 332c1.3-.8 2.1-1.8 2.1-1.8s-2.3-2.7-5.1-2.7-5.1 2.7-5.1 2.7.8 1 2.1 1.8c-2 .8-3.4 2.1-3.4 2.1s1.3 1.3 3.4 2.1c-1.3.8-2.1 1.8-2.1 1.8s2.3 2.7 5.1 2.7 5.1-2.7 5.1-2.7-.8-1-2.1-1.8c2-.8 3.4-2.1 3.4-2.1s-1.4-1.3-3.4-2.1zm26.4 26c1.3-.8 2.1-1.8 2.1-1.8s-2.3-2.7-5.1-2.7-5.1 2.7-5.1 2.7.8 1 2.1 1.8c-2 .8-3.4 2.1-3.4 2.1s1.3 1.3 3.4 2.1c-1.3.8-2.1 1.8-2.1 1.8s2.3 2.7 5.1 2.7 5.1-2.7 5.1-2.7-.8-1-2.1-1.8c2-.8 3.4-2.1 3.4-2.1s-1.3-1.3-3.4-2.1zm-33.7 4.8c1.3-.8 2.1-1.8 2.1-1.8s-2.3-2.7-5.1-2.7c-2.9 0-5.1 2.7-5.1 2.7s.8 1 2.1 1.8c-2 .8-3.4 2.1-3.4 2.1s1.3 1.3 3.4 2.1c-1.3.8-2.1 1.8-2.1 1.8s2.3 2.7 5.1 2.7c2.9 0 5.1-2.7 5.1-2.7s-.8-1-2.1-1.8c2-.8 3.4-2.1 3.4-2.1s-1.3-1.3-3.4-2.1zm-27.5-19.4c1.3-.8 2.1-1.8 2.1-1.8s-2.3-2.7-5.1-2.7c-2.9 0-5.1 2.7-5.1 2.7s.8 1 2.1 1.8c-2 .8-3.4 2.1-3.4 2.1s1.3 1.3 3.4 2.1c-1.3.8-2.1 1.8-2.1 1.8s2.3 2.7 5.1 2.7c2.9 0 5.1-2.7 5.1-2.7s-.8-1-2.1-1.8c2-.8 3.4-2.1 3.4-2.1s-1.3-1.3-3.4-2.1zM213 368.5c-1.3.8-2.1 1.8-2.1 1.8s2.3 2.7 5.1 2.7 5.1-2.7 5.1-2.7-.8-1-2.1-1.8c2-.8 3.4-2.1 3.4-2.1s-1.3-1.3-3.4-2.1c1.3-.8 2.1-1.8 2.1-1.8s-2.3-2.7-5.1-2.7-5.1 2.7-5.1 2.7.8 1 2.1 1.8c-2 .8-3.4 2.1-3.4 2.1s1.4 1.3 3.4 2.1zm35.1 9.3c1.3-.8 2.1-1.8 2.1-1.8s-2.3-2.7-5.1-2.7c-2.9 0-5.1 2.7-5.1 2.7s.8 1 2.1 1.8c-2 .8-3.4 2.1-3.4 2.1s1.3 1.3 3.4 2.1c-1.3.8-2.1 1.8-2.1 1.8s2.3 2.7 5.1 2.7c2.9 0 5.1-2.7 5.1-2.7s-.8-1-2.1-1.8c2-.8 3.4-2.1 3.4-2.1s-1.4-1.4-3.4-2.1zm-5.8 28.6c1.3-.8 2.1-1.8 2.1-1.8s-2.3-2.7-5.1-2.7c-2.9 0-5.1 2.7-5.1 2.7s.8 1 2.1 1.8c-2 .8-3.4 2.1-3.4 2.1s1.3 1.3 3.4 2.1c-1.3.8-2.1 1.8-2.1 1.8s2.3 2.7 5.1 2.7c2.9 0 5.1-2.7 5.1-2.7s-.8-1-2.1-1.8c2-.8 3.4-2.1 3.4-2.1s-1.4-1.3-3.4-2.1zm-26.7-4.2s-.8-1-2.1-1.8c2-.8 3.4-2.1 3.4-2.1s-1.3-1.3-3.4-2.1c1.3-.8 2.1-1.8 2.1-1.8s-2.3-2.7-5.1-2.7c-2.9 0-5.1 2.7-5.1 2.7s.8 1 2.1 1.8c-2 .8-3.4 2.1-3.4 2.1s1.3 1.3 3.4 2.1c-1.3.8-2.1 1.8-2.1 1.8s2.3 2.7 5.1 2.7c2.7.1 5.1-2.7 5.1-2.7zm6.9 27c1.3-.8 2.1-1.8 2.1-1.8s-2.3-2.7-5.1-2.7c-2.9 0-5.1 2.7-5.1 2.7s.8 1 2.1 1.8c-2 .8-3.4 2.1-3.4 2.1s1.3 1.3 3.4 2.1c-1.3.8-2.1 1.8-2.1 1.8s2.3 2.7 5.1 2.7c2.9 0 5.1-2.7 5.1-2.7s-.8-1-2.1-1.8c2-.8 3.4-2.1 3.4-2.1s-1.3-1.3-3.4-2.1z"/><path class="alst2" d="M115 734.6h-11.7c-2.4 0-4.2-1-5.3-3l-25.3-37.9c-.8-1.2-1.6-2-2.5-2.6-.9-.5-2.3-.8-4.1-.8H56v44.3H42.9v-106h27.6c6.2 0 11.5.7 16 2 4.5 1.4 8.2 3.3 11.1 5.9 2.9 2.6 5.1 5.7 6.5 9.3 1.4 3.6 2.1 7.7 2.1 12.2 0 3.8-.5 7.3-1.6 10.5s-2.7 6.2-4.7 8.8c-2.1 2.6-4.6 4.8-7.6 6.6-3 1.8-6.3 3.2-10.1 4.1 1.7 1 3.1 2.5 4.4 4.5l28.4 42.1zM69.9 680c3.8 0 7.2-.5 10.1-1.5 2.9-1 5.4-2.4 7.4-4.3 2-1.8 3.5-4.1 4.5-6.6 1-2.6 1.5-5.4 1.5-8.5 0-6.3-1.9-11.1-5.7-14.3-3.8-3.2-9.5-4.8-17.2-4.8H56v40h13.9zM150 658.5c5 0 9.6.9 13.6 2.7 4 1.8 7.5 4.4 10.3 7.8 2.9 3.4 5 7.4 6.6 12.2 1.5 4.8 2.3 10.1 2.3 15.9 0 5.9-.8 11.2-2.3 16-1.5 4.7-3.7 8.8-6.6 12.1-2.9 3.4-6.3 5.9-10.3 7.7-4 1.8-8.6 2.7-13.6 2.7-5.1 0-9.7-.9-13.7-2.7-4.1-1.8-7.5-4.4-10.4-7.7-2.9-3.4-5-7.4-6.6-12.1-1.5-4.7-2.3-10.1-2.3-16s.8-11.2 2.3-15.9c1.5-4.8 3.7-8.8 6.6-12.2 2.9-3.4 6.3-5.9 10.4-7.8 4-1.8 8.6-2.7 13.7-2.7zm0 66.9c6.8 0 11.9-2.5 15.2-7.4 3.4-5 5-11.9 5-20.8s-1.7-15.9-5-20.9c-3.4-5-8.4-7.5-15.2-7.5-3.4 0-6.5.6-9 1.9-2.6 1.3-4.7 3.1-6.4 5.6-1.7 2.4-3 5.4-3.8 8.9-.8 3.5-1.3 7.5-1.3 12 0 8.9 1.7 15.8 5.1 20.8 3.4 4.9 8.5 7.4 15.4 7.4zM246.1 673c-.4.5-.7 1-1.1 1.3-.4.3-.9.4-1.5.4-.7 0-1.4-.3-2.2-.9-.8-.6-1.8-1.3-3-2s-2.7-1.4-4.4-2c-1.7-.6-3.9-.9-6.4-.9-3.4 0-6.4.7-9 2-2.6 1.3-4.8 3.2-6.5 5.7-1.7 2.5-3.1 5.5-3.9 9-.9 3.5-1.3 7.4-1.3 11.8 0 4.5.5 8.6 1.4 12.1 1 3.5 2.3 6.5 4.1 8.9 1.7 2.4 3.9 4.2 6.3 5.5 2.5 1.3 5.3 1.9 8.3 1.9 3 0 5.4-.4 7.3-1.1 1.9-.8 3.5-1.6 4.7-2.6 1.2-.9 2.3-1.8 3.1-2.6.8-.8 1.7-1.1 2.5-1.1 1 0 1.8.4 2.3 1.3l3.4 4.8c-1.5 2-3.2 3.8-5.1 5.2-1.9 1.4-4 2.6-6.2 3.6s-4.5 1.7-6.9 2.1c-2.4.4-4.9.7-7.4.7-4.3 0-8.3-.9-12-2.6-3.7-1.7-6.9-4.2-9.6-7.5-2.7-3.3-4.9-7.3-6.4-12.1s-2.3-10.2-2.3-16.4c0-5.6.7-10.7 2.1-15.5 1.4-4.7 3.5-8.8 6.3-12.2 2.7-3.4 6.1-6.1 10.1-8s8.6-2.9 13.9-2.9c4.9 0 9.1.9 12.8 2.6 3.7 1.7 7 4.1 9.8 7.2l-3.2 4.3zM275.3 625.6v64.2h3.1c.9 0 1.7-.1 2.3-.4.6-.3 1.3-.8 1.9-1.7l21.8-25.4c.6-.8 1.3-1.5 2-2s1.6-.7 2.8-.7h11L294.8 689c-1.2 1.7-2.5 3-3.9 3.9.8.6 1.6 1.3 2.2 2 .7.8 1.3 1.6 1.9 2.6l27 37h-10.8c-1 0-1.9-.2-2.7-.6s-1.4-1-1.9-2l-22.7-30.7c-.7-1-1.4-1.7-2-2-.7-.3-1.7-.5-3-.5h-3.5v35.8h-12.2v-109h12.1zM372.5 672c-.5 1.1-1.4 1.6-2.5 1.6-.7 0-1.5-.3-2.3-.8-.9-.5-1.9-1.1-3.2-1.8s-2.7-1.3-4.5-1.9c-1.7-.6-3.8-.9-6.1-.9-2 0-3.9.3-5.5.9-1.6.6-3 1.3-4.2 2.3-1.2 1-2 2.1-2.7 3.4-.6 1.3-.9 2.7-.9 4.3 0 1.9.5 3.5 1.5 4.8 1 1.3 2.4 2.4 4.1 3.3 1.7.9 3.6 1.8 5.7 2.5s4.3 1.5 6.6 2.3c2.2.8 4.4 1.7 6.6 2.7 2.1 1 4 2.2 5.7 3.7 1.7 1.5 3 3.3 4.1 5.4 1 2.1 1.5 4.7 1.5 7.7 0 3.5-.6 6.6-1.7 9.6-1.1 2.9-2.8 5.5-5 7.6-2.2 2.1-4.9 3.8-8.2 5.1s-6.9 1.8-11.2 1.8c-4.8 0-9.2-.9-13.1-2.6-3.9-1.7-7.2-3.9-9.9-6.5l2.9-5c.4-.6.8-1.1 1.3-1.5.5-.3 1.1-.5 1.9-.5.8 0 1.7.3 2.6 1 .9.7 2 1.5 3.3 2.3 1.3.8 2.9 1.6 4.7 2.3 1.9.7 4.2 1 6.9 1 2.4 0 4.4-.3 6.2-1 1.8-.7 3.2-1.6 4.4-2.7 1.2-1.1 2.1-2.4 2.6-3.9.6-1.5.9-3.1.9-4.7 0-2.1-.5-3.8-1.5-5.1-1-1.4-2.4-2.5-4.1-3.5-1.7-1-3.6-1.8-5.8-2.5-2.2-.7-4.4-1.5-6.6-2.3-2.2-.8-4.4-1.7-6.6-2.7-2.2-1-4.1-2.3-5.8-3.8-1.7-1.5-3-3.4-4.1-5.7-1-2.2-1.5-5-1.5-8.2 0-2.9.5-5.6 1.6-8.3 1.1-2.6 2.7-5 4.8-7 2.1-2 4.7-3.6 7.7-4.8 3-1.2 6.5-1.8 10.4-1.8 4.5 0 8.6.8 12.2 2.3 3.6 1.6 6.7 3.7 9.4 6.4l-2.6 5.2zM476.7 681.7c0 7.9-1.2 15.2-3.5 21.7s-5.6 12.1-9.8 16.7c-4.2 4.6-9.3 8.2-15.2 10.8s-12.5 3.8-19.6 3.8h-36.4v-106h36.4c7.2 0 13.7 1.3 19.6 3.8 5.9 2.5 11 6.1 15.2 10.8s7.5 10.2 9.8 16.8 3.5 13.6 3.5 21.6zm-13.5 0c0-6.5-.8-12.3-2.5-17.5-1.6-5.1-3.9-9.5-6.9-13-3-3.6-6.6-6.3-10.9-8.1-4.3-1.9-9-2.8-14.3-2.8h-23.2V723h23.2c5.3 0 10-.9 14.3-2.8 4.3-1.9 7.9-4.6 10.9-8.1s5.3-7.9 6.9-13c1.6-5.1 2.5-10.9 2.5-17.4zM526.8 628.6c6 0 11.2.6 15.5 1.9 4.3 1.3 7.9 3.1 10.7 5.5 2.8 2.4 4.8 5.3 6.2 8.7 1.3 3.4 2 7.3 2 11.6 0 2.6-.4 5.1-1.1 7.5-.7 2.4-1.9 4.6-3.4 6.7-1.5 2.1-3.4 3.9-5.7 5.6-2.3 1.7-5 3-8.1 4 7.2 1.5 12.6 4.3 16.2 8.3 3.6 4.1 5.4 9.4 5.4 16 0 4.5-.8 8.6-2.3 12.3s-3.7 6.9-6.7 9.5c-2.9 2.7-6.5 4.7-10.8 6.2-4.3 1.5-9.1 2.2-14.6 2.2h-34.4v-106h31.1zm-18 11.3v36.2h17.4c3.7 0 7-.4 9.7-1.3 2.7-.9 5-2.1 6.8-3.7 1.8-1.6 3.1-3.5 4-5.7.9-2.2 1.3-4.7 1.3-7.4 0-6.3-1.7-10.8-5.2-13.7-3.4-2.9-8.8-4.3-16.1-4.3h-17.9zm21.1 83.3c3.8 0 7-.5 9.7-1.4 2.7-.9 5-2.3 6.7-4 1.7-1.7 3-3.7 3.8-6.1.8-2.3 1.2-4.9 1.2-7.7 0-5.5-1.8-9.8-5.4-13-3.6-3.2-9-4.8-16.1-4.8h-21.1v36.9h21.2z"/></svg>