<?xml version="1.0" encoding="utf-8"?><svg version="1.1" id="byscala-logo-white" xmlns="http://www.w3.org/2000/svg" x="0" y="0" viewBox="-10.6 -10.6 127.2 125.4" xml:space="preserve" width="120" height="118.3"><style>.byst0{fill:url(#bySVGID_1_)}.byst1{fill:url(#bySVGID_2_)}.byst2{fill:url(#bySVGID_3_)}.byst3{fill:url(#bySVGID_4_)}.byst4{fill:url(#bySVGID_5_)}.byst5{fill:#fff}</style><linearGradient id="bySVGID_1_" gradientUnits="userSpaceOnUse" x1="-1804.78" y1="-7.368" x2="-1804.648" y2="-7.368" gradientTransform="matrix(256 0 0 -96 462060 -663.023)"><stop offset="0" stop-color="#4f4f4f"/><stop offset="1"/></linearGradient><path class="byst0" d="M36.4 42.2v4.2c0 .7 15.3 1.9 25.3 4.2 4.8-1.1 8.4-2.5 8.4-4.2v-4.2c0-1.7-3.6-3.1-8.4-4.2-10 2.3-25.3 3.5-25.3 4.2"/><linearGradient id="bySVGID_2_" gradientUnits="userSpaceOnUse" x1="-1804.78" y1="-8.526" x2="-1804.648" y2="-8.526" gradientTransform="matrix(256 0 0 -96 462060 -791.023)"><stop offset="0" stop-color="#4f4f4f"/><stop offset="1"/></linearGradient><path class="byst1" d="M36.4 25.4v4.2c0 .7 15.3 1.9 25.3 4.2 4.8-1.1 8.4-2.5 8.4-4.2v-4.2c0-1.7-3.6-3.1-8.4-4.2-10 2.3-25.3 3.5-25.3 4.2"/><linearGradient id="bySVGID_3_" gradientUnits="userSpaceOnUse" x1="-1804.78" y1="-4.606" x2="-1804.648" y2="-4.606" gradientTransform="matrix(256 0 0 -160 462060 -701.102)"><stop offset="0" stop-color="#c40000"/><stop offset="1" stop-color="red"/></linearGradient><path class="byst2" d="M36.4 33.8v12.6c0-1.1 33.6-3.2 33.6-8.4V25.4c.1 5.2-33.6 7.3-33.6 8.4"/><linearGradient id="bySVGID_4_" gradientUnits="userSpaceOnUse" x1="-1804.78" y1="-5.301" x2="-1804.648" y2="-5.301" gradientTransform="matrix(256 0 0 -160 462060 -829.102)"><stop offset="0" stop-color="#c40000"/><stop offset="1" stop-color="red"/></linearGradient><path class="byst3" d="M36.4 17v12.6c0-1.1 33.6-3.2 33.6-8.4V8.6c.1 5.2-33.6 7.3-33.6 8.4"/><linearGradient id="bySVGID_5_" gradientUnits="userSpaceOnUse" x1="-1804.78" y1="-3.911" x2="-1804.648" y2="-3.911" gradientTransform="matrix(256 0 0 -160 462060 -573.102)"><stop offset="0" stop-color="#c40000"/><stop offset="1" stop-color="red"/></linearGradient><path class="byst4" d="M36.4 50.6v12.6c0-1.1 33.6-3.2 33.6-8.4V42.2c.1 5.2-33.6 7.3-33.6 8.4"/><g><path class="byst5" d="M9.2 88.9c1.6.8 4.2 1.7 6.8 1.7 2.8 0 4.3-1.2 4.3-2.9S19 85 15.8 83.9c-4.5-1.6-7.4-4.1-7.4-8 0-4.6 3.9-8.2 10.3-8.2 3.1 0 5.3.6 6.9 1.4L24.1 74c-1.1-.5-3-1.3-5.7-1.3s-3.9 1.2-3.9 2.6c0 1.7 1.5 2.5 5 3.8 4.8 1.8 7 4.3 7 8.1 0 4.5-3.5 8.4-10.9 8.4-3.1 0-6.2-.8-7.7-1.6l1.3-5.1zM45.5 94.7c-1.1.5-3.1.9-5.5.9-6.4 0-10.4-3.9-10.4-10.1 0-5.7 3.9-10.5 11.3-10.5 1.6 0 3.4.3 4.7.8l-1 4.5c-.7-.3-1.8-.6-3.4-.6-3.2 0-5.3 2.3-5.3 5.5 0 3.6 2.4 5.5 5.4 5.5 1.4 0 2.6-.2 3.5-.6l.7 4.6zM60.3 95.2l-.4-2h-.1c-1.3 1.6-3.3 2.4-5.6 2.4-4 0-6.4-2.9-6.4-6 0-5.1 4.6-7.6 11.5-7.5v-.3c0-1-.6-2.5-3.6-2.5-2 0-4.1.7-5.4 1.5l-1.1-3.9c1.4-.8 4.1-1.7 7.6-1.7 6.6 0 8.6 3.9 8.6 8.5v6.8c0 1.9.1 3.7.3 4.8h-5.4v-.1zm-.8-9.3c-3.2 0-5.7.7-5.7 3.1 0 1.6 1 2.3 2.4 2.3 1.5 0 2.8-1 3.2-2.3.1-.3.1-.7.1-1v-2.1zM70.3 66.6h6.1v28.5h-6.1V66.6zM92.5 95.2l-.4-2H92c-1.3 1.6-3.3 2.4-5.6 2.4-4 0-6.4-2.9-6.4-6 0-5.1 4.6-7.6 11.5-7.5v-.3c0-1-.6-2.5-3.6-2.5-2 0-4.1.7-5.4 1.5l-1.1-3.9c1.4-.8 4.1-1.7 7.6-1.7 6.6 0 8.6 3.9 8.6 8.5v6.8c0 1.9.1 3.7.3 4.8h-5.4v-.1zm-.7-9.3c-3.2 0-5.7.7-5.7 3.1 0 1.6 1 2.3 2.4 2.3 1.5 0 2.8-1 3.2-2.3.1-.3.1-.7.1-1v-2.1z"/></g></svg>