<?xml version="1.0" encoding="utf-8"?><svg version="1.1" id="ccappel" xmlns="http://www.w3.org/2000/svg" x="0" y="0" viewBox="-120 -120 1440 1440" xml:space="preserve" width="120" height="120"><style>.ccst0{fill:#4d4d4e}.ccst1{fill:#f89820}.ccst2{fill:url(#ccSVGID_1_)}</style><path class="ccst0" d="M1123.6 1159H87.1c-23.9 0-43.5-19.6-43.5-43.5V79.3c0-23.9 19.6-43.5 43.5-43.5h1036.4c23.9 0 43.5 19.6 43.5 43.5v1036.4c-.2 23.9-19.5 43.3-43.4 43.3z"/><path class="ccst1" d="M302.7 375l587.9-186.5s41.7-21.9 31.7 18.6l1.5 179.8s7.3 26.4-28.9 32.9L656 494.5 302.7 375z"/><path class="ccst1" d="M302.7 375s-23.1 5.5-16.4 45L285 593.2s-2 21.9 39.5 30.7l582.6 187.5s19.6 7.8 17.4-16.4l.2-193.2s5.5-19.8-30.7-32.9l-238-74.6L302.7 375z"/><linearGradient id="ccSVGID_1_" gradientUnits="userSpaceOnUse" x1="-675.056" y1="163.111" x2="-568.76" y2="126.333" gradientTransform="translate(4095.65 -14.257) scale(5.5944)"><stop offset=".233" stop-color="#f89822"/><stop offset="1" stop-color="#c27818"/></linearGradient><path class="ccst2" d="M559.3 699.4L311.5 775s-29.9 1-26.4 57c3.5 56.1-.2 168.9-.2 168.9s2.6 20.8 31.2 8.8L904 822.2s20.8-5.3 3.3-11c-17.8-5.5-348-111.8-348-111.8z"/></svg>