<?xml version="1.0" encoding="utf-8"?><svg version="1.1" id="cesw-sqarql-logo" xmlns="http://www.w3.org/2000/svg" x="0" y="0" viewBox="-10 -10 100.5 35.5" xml:space="preserve" width="100.5" height="35.5"><style>.cest0{fill:#fff}.cest1{fill:#005b9d}.cest2{fill:none;stroke:#005b9d;stroke-width:.5}.cest3{fill:#241e12}.cest4{fill:#87bb40}.cest5{fill:#ed7d22}.cest6{fill:#bd1b89}</style><g shape-rendering="geometricPrecision" image-rendering="optimizeQuality" text-rendering="geometricPrecision"><path class="cest0" d="M.2.2h41.5v15.1H.2z"/><path class="cest1" d="M39.3.2h41v15.1h-41z"/><path class="cest2" d="M.2.2h80v15H.2z"/><path class="cest3" d="M23.9 1.3c.4 0 .7.3.7.7 0 .4-.3.7-.7.7-.4 0-.7-.3-.7-.7 0-.4.3-.7.7-.7zm0 .1c-.3 0-.6.3-.6.6s.2.6.6.6c.3 0 .6-.3.6-.6s-.3-.6-.6-.6zm-.1 1.1h-.2v-.9h.3c.1 0 .2 0 .3.1 0 0 .1.1.1.2s-.1.2-.2.2c.1 0 .1.1.1.2v.2H24v-.2c0-.1-.1-.1-.2-.1h-.1v.3zm0-.5c.2 0 .2 0 .2-.1s0-.1-.2-.1h-.1V2zM22.7 2.1l.2 1.4-.8 1.6s-.3-.7-.8-1c-.4-.3-.7-.4-1.2-.3-.6.1-1.2.8-1.5 1.6-.3 1-.3 1.5-.4 1.9 0 .7.1 1.1.1 1.1s-.5-.9-.5-2.3c0-1 .2-1.8.6-2.7.4-.8 1-1.2 1.5-1.3.5-.1 1 .2 1.3.5.3.3.7.9.7.9l.8-1.4zM22.8 10.1l-.6.9c-.2.2-.6.7-1.1.9-.5.2-.8.3-1.2.2-.5 0-.9-.3-1.1-.4-.2-.1-.6-.5-.8-.8-.2-.3-.6-1-.6-1l.3.9c.1.2.3.6.6 1.1.3.4.9 1.1 1.7 1.2s1.5-.2 1.6-.3c.1-.1.5-.4.7-.6.2-.2.4-.5.5-.7.1-.1.2-.4.2-.4l-.2-1z"/><g><path class="cest1" d="M7.8 2.2l2 6.7 2-6.7h1.4l-3.2 11h-.2l-2-6.8-2 6.8h-.2l-3.2-11h1.4l2 6.7 1.3-4.5-.7-2.2h1.4z"/><path class="cest1" d="M17.2 9.6c0 1-.3 1.8-.8 2.5s-1.2 1-2.1 1c-.6 0-1.2-.2-1.6-.6-.5-.4-.8-.9-1-1.6l1.1-.5c.2.4.4.7.6 1 .3.2.6.4.9.4.4 0 .7-.2 1-.6.3-.4.4-.9.4-1.5 0-.7-.1-1.2-.4-1.5-.3-.4-.8-.6-1.5-.6h-.5v-.8l1.9-3.3h-2.3l-.6 1.1h-.4V2.2h5.3v.7l-2 3.5c.7.2 1.2.6 1.6 1.2.2.5.4 1.2.4 2z"/></g><g><path class="cest4" d="M31.4 2.4C35 3.9 35.7 1 35.7 1s-.6 3.7-3.7 5.2l-1 .5-5.1-2.5L31 2.1c-.1 0-.2 0 .4.3z"/><path class="cest5" d="M30.4 13.1l-4.8-2.5V5.3l4.8 2.4z"/><path class="cest6" d="M31.4 13.1l4.7-2.5V5.3l-4.7 2.4z"/></g><g><path class="cest0" d="M41.9 9.3c.6.5 1.1.8 1.6.8.4 0 .6-.2.6-.6 0-.9-2.2-1-2.2-3.4 0-1 .5-2.5 2.1-2.5.7 0 1.3.3 1.8.9v2.2c-.6-.7-1-1.1-1.4-1.1-.3 0-.6.2-.6.6 0 1 2.2 1.1 2.2 3.4 0 1.2-.6 2.4-2.1 2.4-.7 0-1.4-.2-2-.6V9.3zM47 3.8h3c1.7 0 2.3 1.3 2.3 2.6s-.6 2.7-2.4 2.7H49V12h-2V3.8zm2.5 3.8c.6 0 .9-.4.9-1.1 0-.7-.2-1.1-.9-1.1H49v2.2h.5zM54.3 3.8h2.1L59 12h-2l-.4-1.3H54l-.4 1.3h-2l2.7-8.2zm1.9 5.4L55.3 6l-.9 3.2h1.8zM59.8 3.8h3.3c1.6 0 2.2 1.1 2.2 2.3 0 .9-.3 1.5-.9 1.9.4.3.6.8 1 1.8L66 12h-2l-.4-1.2c-.4-1.4-.7-2.2-1.3-2.2h-.6V12h-2V3.8zm2.6 3.5c.7 0 1-.4 1-1.1s-.4-1.1-1-1.1h-.6v2.2h.6zM72 14.3c-.8-.2-2.5-1.2-3.4-1.9-1.5-1.2-2.2-2.7-2.2-4.5 0-2 .9-4.2 3.2-4.2 2.2 0 3.3 2.1 3.3 4.2 0 1.5-.5 2.7-1.5 3.5.7.5 1.3.8 1.9 1.1L72 14.3zm-2.3-4.5c.7 0 1.2-.7 1.2-1.8s-.5-1.8-1.2-1.8-1.2.7-1.2 1.8c0 1 .5 1.8 1.2 1.8zM74 3.8h2V10h2.3v2H74V3.8z"/></g></g></svg>