<?xml version="1.0" encoding="utf-8"?><svg version="1.1" id="cmxslt-logo" xmlns="http://www.w3.org/2000/svg" x="0" y="0" viewBox="-87.2 -87.2 1046.4 940.4" xml:space="preserve" width="120" height="107.84"><style>.cmst0{fill:#da9e02}</style><path class="cmst0" d="M609.9 262.5c0-.7-.2-1.4-.4-2.1-.1-.3-.2-.5-.3-.8-.4-.9-.9-1.7-1.6-2.3l-112-112c-.7-.7-1.5-1.2-2.3-1.6-.2-.1-.5-.2-.7-.3-.7-.2-1.4-.4-2.1-.4-.1 0-.3-.1-.5-.1H292c-4.4 0-8 3.6-8 8v115H170.4c-9.6 0-17.3 7.8-17.3 17.3v107.6c0 9.6 7.8 17.3 17.3 17.3l101.4-.3H284V567c0 4.4 3.6 8 8 8h310c4.4 0 8-3.6 8-8V263c0-.2-.1-.3-.1-.5zM498 170.3l84.7 84.7H498v-84.7zM170.4 392.2c-.7 0-1.3-.6-1.3-1.3V283.3c0-.7.6-1.3 1.3-1.3l133.4 1h103.4c.7 0 1.3.6 1.3 1.3v106.6c0 .7-.6 1.3-1.3 1.3H170.4zM594 559H300V407.9l107.2.3c9.6 0 17.3-7.8 17.3-17.3V284.3c0-9.6-7.8-17.3-17.3-17.3l-101.4-1H300V158l182 1v104c0 4.4 3.6 8 8 8h104v288z"/><path class="cmst0" d="M370.3 237.9c-.3 0-.7-.1-1-.2l-48.4-22.5c-.8-.4-1.4-1.2-1.4-2.2v-8.7c0-.9.5-1.8 1.4-2.2l48.4-22.5c.7-.3 1.6-.3 2.3.2.7.4 1.1 1.2 1.1 2v10.7c0 1-.6 1.8-1.4 2.2l-31.8 13.9 31.8 13.9c.9.4 1.4 1.2 1.4 2.2v10.7c0 .8-.4 1.6-1.1 2-.4.4-.8.5-1.3.5zM520 538.2c-.5 0-.9-.1-1.3-.4-.7-.4-1.1-1.2-1.1-2v-10.7c0-1 .6-1.8 1.5-2.2l32.5-13.9-32.6-14c-.9-.4-1.5-1.2-1.5-2.2v-10.7c0-.8.4-1.6 1.1-2 .7-.4 1.6-.5 2.3-.2l48.4 22.2c.9.4 1.4 1.2 1.4 2.2v9.3c0 .9-.5 1.8-1.4 2.2L521 538c-.4.1-.7.2-1 .2zm48.3-24.6zM227.4 372.5l-5.9-11.8c-2.4-4.6-4-8-5.8-11.7h-.2c-1.4 3.8-3 7.2-5 11.7l-5.4 11.8h-16.9l18.9-33.1-18.2-32.3h17l5.7 11.9c1.9 4 3.4 7.2 4.9 10.9h.2c1.6-4.2 2.8-7.1 4.5-10.9l5.5-11.9h16.9L225.1 339l19.4 33.5h-17.1zM252.9 357.2c4 2 10.1 4.1 16.4 4.1 6.8 0 10.4-2.8 10.4-7.1 0-4.1-3.1-6.4-11-9.2-10.9-3.8-17.9-9.8-17.9-19.3 0-11.2 9.3-19.7 24.7-19.7 7.4 0 12.8 1.6 16.7 3.3l-3.3 11.9c-2.6-1.3-7.3-3.1-13.7-3.1-6.4 0-9.5 2.9-9.5 6.3 0 4.2 3.7 6 12.1 9.2 11.5 4.3 17 10.3 17 19.5 0 11-8.4 20.3-26.4 20.3-7.5 0-14.8-1.9-18.5-4l3-12.2zM304.8 307.1h14.8v53h26v12.4h-40.8v-65.4zM356.9 319.5h-17.6v-12.4h50.2v12.4h-17.8v53h-14.8v-53z"/></svg>