<?xml version="1.0" encoding="utf-8"?><svg version="1.1" id="cnLayer_1" xmlns="http://www.w3.org/2000/svg" x="0" y="0" viewBox="-210 -210 2520 2520" xml:space="preserve" width="120" height="120"><style>.cnst0{fill:red}.cnst1{fill:#fff}</style><path class="cnst0" d="M2003.1 839.7c-23.3-86.1-90.6-153.4-176.7-176.7-154.9-42.2-778.3-42.2-778.3-42.2s-623.4 1.3-778.3 43.5C183.7 687.6 116.5 754.9 93.2 841c-46.9 275.2-65 694.6 1.3 958.8 23.3 86.1 90.6 153.4 176.7 176.7 154.9 42.2 778.3 42.2 778.3 42.2s623.4 0 778.3-42.2c86.1-23.3 153.4-90.6 176.7-176.7 49.3-275.6 64.6-694.8-1.4-960.1z"/><path class="cnst1" d="M822.3 1627.5l531.3-307.8L822.3 1012v615.5z"/></svg>