<?xml version="1.0" encoding="utf-8"?><svg version="1.1" id="cpLayer_2_1_" xmlns="http://www.w3.org/2000/svg" x="0" y="0" viewBox="-120 -120 1440 1440" xml:space="preserve" width="120" height="120"><style>.cpst0{fill:#6e49b4}</style><path class="cpst0" d="M1058.7 431.6h-28.4V294.7c0-.9-.2-1.7-.2-2.6 0-5.4-1.7-10.8-5.6-15.1L796.9 17s-.2 0-.2-.2c-1.3-1.5-3-2.8-4.5-3.9-.4-.4-1.1-.6-1.5-.9-1.5-.9-3-1.5-4.5-1.9-.4-.2-.9-.2-1.3-.4-1.7-.4-3.4-.6-5.4-.6H219.6c-25.6 0-46.3 20.7-46.3 46.3v376.2h-28.4c-36.6 0-66.2 29.7-66.2 66.2v344.4c0 36.6 29.7 66.2 66.2 66.2h28.4V1144c0 25.6 20.7 46.3 46.3 46.3h764.6c25.6 0 46.3-20.7 46.3-46.3V908.5h28.4c36.6 0 66.2-29.7 66.2-66.2V497.9c-.2-36.6-29.7-66.3-66.4-66.3zM513.1 92h24.1c4.5 0 8.2-3.7 8.2-8.2s-3.7-8.2-8.2-8.2h-24.1v-20h243.1v237c0 12.7 10.3 23.3 23.3 23.3h204.7V432H513.1v-23.5h24.1c4.5 0 8.2-3.7 8.2-8.2s-3.7-8.2-8.2-8.2h-24.1V362h24.1c4.5 0 8.2-3.7 8.2-8.2s-3.7-8.2-8.2-8.2h-24.1v-25H553c13.6 0 24.8-11.2 24.8-24.8L553 139.6c0-13.6-11.2-24.8-24.8-24.8h-15.1V92zm194.6 398.8v345.9h-78.4V490.8h78.4zm-381.4 64.7v-64.6h251v45.3l-161.2 234v1.9h163.8v64.6H311v-42l164.9-237v-2.2H326.3zm190.9-404.1l20.9 131.4H459l22.8-131.4h35.4zM219.6 55.3h267.6v20.3h-24.1c-4.5 0-8.2 3.7-8.2 8.2s3.7 8.2 8.2 8.2h24.1v22.4h-16.1c-13.6 0-24.8 11.2-24.8 24.8l-27.4 156.2c0 13.6 11.2 24.8 24.8 24.8h43.5v25h-24.1c-4.5 0-8.2 3.7-8.2 8.2s3.7 8.2 8.2 8.2h24.1V392h-24.1c-4.5 0-8.2 3.7-8.2 8.2s3.7 8.2 8.2 8.2h24.1V432H219.6V55.3zm0 1076.4V908.5h267.6v37.1h-24.1c-4.5 0-8.2 3.7-8.2 8.2s3.7 8.2 8.2 8.2h24.1v30.8h-24.1c-4.5 0-8.2 3.7-8.2 8.2s3.7 8.2 8.2 8.2h24.1v30.2h-24.1c-4.5 0-8.2 3.7-8.2 8.2s3.7 8.2 8.2 8.2h24.1v30.2h-24.1c-4.5 0-8.2 3.7-8.2 8.2s3.7 8.2 8.2 8.2h24.1v29.5H219.6zm293.5 0v-29.3h24.1c4.5 0 8.2-3.7 8.2-8.2s-3.7-8.2-8.2-8.2h-24.1v-30.2h24.1c4.5 0 8.2-3.7 8.2-8.2s-3.7-8.2-8.2-8.2h-24.1v-30.2h24.1c4.5 0 8.2-3.7 8.2-8.2s-3.7-8.2-8.2-8.2h-24.1V962h24.1c4.5 0 8.2-3.7 8.2-8.2s-3.7-8.2-8.2-8.2h-24.1v-37.1h470.8v223H513.1zm479-453.4c-26.7 25.2-66.2 36.4-112.5 36.4-10.3 0-19.4-.4-26.7-1.5v123.7h-77.6V495.6c24.1-4.1 58-7.1 105.8-7.1 48.3 0 82.5 9.3 105.8 27.8 22 17.5 36.8 46.1 36.8 80.2.1 33.5-11.1 62.2-31.6 81.8z"/><path class="cpst0" d="M885.2 547.3c-15.9 0-26.7 1.5-32.3 3v102.1c6.7 1.5 14.9 2.2 26.3 2.2 41.6 0 67.2-21.1 67.2-56.5 0-31.6-22.1-50.8-61.2-50.8z"/></svg>